<?xml version="1.0" encoding="UTF-8"?>
<svg version="1.1" xmlns="http://www.w3.org/2000/svg" width="512" height="512">
<path d="M0 0 C3.63733703 0.00782916 7.27465653 0.00048902 10.91199493 -0.0041585 C17.00953091 -0.00955088 23.10695638 -0.00259953 29.2044754 0.01186323 C36.16077859 0.02817694 43.11681757 0.02288372 50.0731144 0.00638402 C56.14634706 -0.00742064 62.21950224 -0.00905991 68.29274559 -0.00129998 C71.87593507 0.00327449 75.45900231 0.00429696 79.04218292 -0.00590944 C134.75940589 -0.14268912 194.13405924 8.22123312 235.54627228 49.27797651 C236.53105701 50.31433351 237.51098019 51.35535427 238.48377228 52.40297651 C239.30877228 53.22797651 240.13377228 54.05297651 240.98377228 54.90297651 C241.80877228 55.72797651 242.63377228 56.55297651 243.48377228 57.40297651 C243.9710379 57.84383589 244.45830353 58.28469526 244.96033478 58.73891401 C270.62269697 82.69856023 283.94067541 119.67335966 289.73377228 153.40297651 C289.88491486 154.27784712 290.03605743 155.15271772 290.19178009 156.05409956 C293.35876443 175.99430514 293.80038283 195.96031177 293.78535485 216.10805273 C293.78426412 219.01914202 293.78922124 221.93021054 293.79396027 224.84129524 C293.80495755 231.73426818 293.80555005 238.6271866 293.79944611 245.52016401 C293.79342747 252.53536461 293.80568639 259.55036357 293.82701617 266.56552982 C293.84487404 272.6725615 293.85059593 278.77953045 293.84737843 284.88658714 C293.84560186 288.49673582 293.84782238 292.10674104 293.86209297 295.71686506 C294.07067594 353.44818102 284.23928222 405.23750668 246.48377228 450.40297651 C245.94881134 451.06297651 245.4138504 451.72297651 244.86267853 452.40297651 C236.15636877 462.97323876 236.15636877 462.97323876 230.36658478 465.22719526 C227.53467701 466.99566879 227.39319823 469.26374467 226.48377228 472.40297651 C219.26595216 487.2384377 208.21263531 499.34129359 194.48377228 508.40297651 C193.54800323 509.07899286 192.61223417 509.75500921 191.64810848 510.45151091 C186.38094068 513.41838924 180.84367283 512.94229535 174.94911957 512.88399458 C173.05354692 512.88912113 173.05354692 512.88912113 171.11967987 512.89435124 C167.62362552 512.90327198 164.12806372 512.88732817 160.63207209 512.867239 C156.85779093 512.8499362 153.08353667 512.85581269 149.30922699 512.85884809 C142.77385714 512.86094368 136.23864726 512.84841283 129.70331764 512.82589674 C120.25440086 512.79336372 110.80556128 512.7829684 101.35659456 512.77794477 C86.02565229 512.76919416 70.69479524 512.74258493 55.36389923 512.70473433 C40.47295304 512.66800818 25.58203001 512.63969937 10.69104767 512.62270308 C9.77289209 512.62165218 8.85473652 512.62060129 7.90875805 512.61951855 C3.30255869 512.61429833 -1.30364083 512.60924351 -5.90984046 512.60427094 C-44.11202921 512.56281619 -82.31412284 512.49237412 -120.51622772 512.40297651 C-121.01122772 510.91797651 -121.01122772 510.91797651 -121.51622772 509.40297651 C-122.17622772 509.40297651 -122.83622772 509.40297651 -123.51622772 509.40297651 C-123.51622772 508.74297651 -123.51622772 508.08297651 -123.51622772 507.40297651 C-124.17622772 507.40297651 -124.83622772 507.40297651 -125.51622772 507.40297651 C-125.51622772 506.74297651 -125.51622772 506.08297651 -125.51622772 505.40297651 C-126.17622772 505.40297651 -126.83622772 505.40297651 -127.51622772 505.40297651 C-127.84622772 503.42297651 -128.17622772 501.44297651 -128.51622772 499.40297651 C-129.17622772 499.40297651 -129.83622772 499.40297651 -130.51622772 499.40297651 C-130.51622772 498.08297651 -130.51622772 496.76297651 -130.51622772 495.40297651 C-131.50622772 495.40297651 -132.49622772 495.40297651 -133.51622772 495.40297651 C-133.51622772 493.42297651 -133.51622772 491.44297651 -133.51622772 489.40297651 C-134.17622772 489.40297651 -134.83622772 489.40297651 -135.51622772 489.40297651 C-135.51622772 486.76297651 -135.51622772 484.12297651 -135.51622772 481.40297651 C-136.17622772 481.40297651 -136.83622772 481.40297651 -137.51622772 481.40297651 C-137.57939178 480.8190312 -137.64255585 480.23508589 -137.70763397 479.63344526 C-138.85318052 476.47350768 -140.68155729 475.5700702 -143.45372772 473.71547651 C-151.16127934 468.34324288 -157.9635906 462.12362998 -164.51622772 455.40297651 C-165.14657928 454.81774214 -165.77693085 454.23250776 -166.42638397 453.62953901 C-203.3793465 418.56658691 -215.41172042 364.69093531 -216.79766083 315.69228315 C-216.92870949 308.42374578 -216.93991043 301.15610845 -216.91920424 293.88674879 C-216.91137507 290.24941176 -216.91871522 286.61209227 -216.92336273 282.97475386 C-216.92875511 276.87721788 -216.92180376 270.77979241 -216.907341 264.68227339 C-216.8910273 257.7259702 -216.89632052 250.76993122 -216.91282022 243.8136344 C-216.92662488 237.74040173 -216.92826414 231.66724656 -216.92050421 225.5940032 C-216.91592974 222.01081372 -216.91490727 218.42774648 -216.92511368 214.84456587 C-217.06294204 158.70016058 -208.31315011 103.44908564 -169.51622772 60.40297651 C-168.28634501 58.945247 -167.0570818 57.48699436 -165.82872772 56.02797651 C-162.3516444 52.10197399 -158.56457639 48.72911568 -154.51622772 45.40297651 C-153.07183319 44.18481245 -153.07183319 44.18481245 -151.59825897 42.94203901 C-136.87896079 30.77171952 -120.28690036 21.34222778 -102.51622772 14.40297651 C-101.81384979 14.12760054 -101.11147186 13.85222456 -100.38780975 13.56850386 C-68.5714528 1.39803206 -33.68680924 -0.09595421 0 0 Z " fill="#23C18C" transform="translate(216.51622772216797,-0.40297651290893555)"/>
<path d="M0 0 C19.078125 -0.061875 38.15625 -0.12375 57.8125 -0.1875 C63.79995361 -0.21481201 69.78740723 -0.24212402 75.95629883 -0.27026367 C83.36071777 -0.28381348 83.36071777 -0.28381348 86.84501648 -0.28633118 C89.23919862 -0.29088853 91.63337459 -0.30133498 94.0275116 -0.31672668 C118.71613081 -0.46728613 147.7290922 -0.31290185 166.89453125 17.69921875 C179.18242274 31.12698886 180.66035096 46.21134207 180.13623047 63.60498047 C179.40414434 76.47552686 173.38513817 87.354965 164 96 C161.17270555 98.0058508 158.30645225 99.83059986 155.3203125 101.58984375 C152.91714791 102.92483447 152.91714791 102.92483447 151 105 C151.60585938 105.21914062 152.21171875 105.43828125 152.8359375 105.6640625 C169.26169055 111.88057827 179.94388963 121.23568162 187.21777344 137.20117188 C193.96556118 152.71855642 192.54661776 171.70563575 186.875 187.3125 C180.33587216 203.80330344 167.99755977 214.20627074 152.10107422 221.13183594 C132.27381517 229.32446122 112.65365146 229.2844096 91.50390625 229.1953125 C89.15621028 229.19236601 86.80851298 229.19032931 84.46081543 229.18920898 C75.82802337 229.17879192 67.19525958 229.15086955 58.5625 229.125 C29.5740625 229.063125 29.5740625 229.063125 0 229 C0 153.43 0 77.86 0 0 Z " fill="#FDFEFD" transform="translate(171,143)"/>
<path d="M0 0 C15.1903125 -0.12375 15.1903125 -0.12375 30.6875 -0.25 C33.85819092 -0.28641602 37.02888184 -0.32283203 40.2956543 -0.36035156 C42.84683559 -0.37204879 45.39802443 -0.38223816 47.94921875 -0.390625 C49.8898822 -0.4213208 49.8898822 -0.4213208 51.86975098 -0.45263672 C63.65558462 -0.4570964 75.32222678 1.40448056 84 10 C90.65324884 17.40387178 91.47188225 25.4826566 91.30859375 35.203125 C90.65076909 43.29686639 88.18455772 50.08012286 82.05078125 55.5703125 C78.32644182 58.16670913 74.32449299 59.69086367 70 61 C68.91968506 61.34297119 67.83937012 61.68594238 66.72631836 62.03930664 C60.46148919 63.58310454 54.06690449 63.2458559 47.65625 63.1953125 C45.84012207 63.19229126 45.84012207 63.19229126 43.98730469 63.18920898 C39.49149758 63.1787942 34.99574473 63.15087182 30.5 63.125 C15.4025 63.063125 15.4025 63.063125 0 63 C0 42.21 0 21.42 0 0 Z " fill="#22B283" transform="translate(221,270)"/>
<path d="M0 0 C8.78625 -0.0825 17.5725 -0.165 26.625 -0.25 C30.740896 -0.30462402 30.740896 -0.30462402 34.93994141 -0.36035156 C63.07220728 -0.58165707 63.07220728 -0.58165707 75 8 C80.30015166 13.60301747 82.17938821 18.73825399 82.4375 26.3125 C82.23107623 33.50430414 81.01693823 39.53804702 76.19921875 45.06640625 C69.15441534 51.61875738 61.68236565 54.13438424 52.1081543 54.11352539 C50.94732834 54.11344986 49.78650238 54.11337433 48.59049988 54.11329651 C47.34762711 54.10813522 46.10475433 54.10297394 44.82421875 54.09765625 C43.54392288 54.0962413 42.26362701 54.09482635 40.9445343 54.09336853 C37.5530296 54.08956397 34.16156823 54.07975143 30.77008057 54.06866455 C27.30440874 54.05840598 23.83872965 54.05380649 20.37304688 54.04882812 C13.58199308 54.03865883 6.79105801 54.01908196 0 54 C0 36.18 0 18.36 0 0 Z " fill="#25B988" transform="translate(221,182)"/>
<path d="M0 0 C0.495 0.99 0.495 0.99 1 2 C-2.14974825 9.4298497 -6.86012576 15.84582685 -12 22 C-12.50917969 22.65484375 -13.01835937 23.3096875 -13.54296875 23.984375 C-20.22531762 32.23418842 -31.99977223 43.11457571 -42.80296326 44.48101807 C-44.18690207 44.49244546 -45.57113651 44.48235967 -46.95483398 44.45410156 C-47.71663467 44.45468567 -48.47843536 44.45526978 -49.26332092 44.45587158 C-51.75805724 44.45310549 -54.2515686 44.42208562 -56.74609375 44.390625 C-58.48486173 44.38315731 -60.22363817 44.37746687 -61.9624176 44.37347412 C-66.52134764 44.35825925 -71.07976154 44.31901371 -75.63848877 44.2746582 C-80.29733296 44.23361559 -84.9562612 44.21544397 -89.61523438 44.1953125 C-98.74371537 44.15251501 -107.87181463 44.08431444 -117 44 C-113.58882126 42.21219154 -110.54686168 41.36183389 -106.75 40.625 C-106.1101416 40.49907471 -105.4702832 40.37314941 -104.81103516 40.2434082 C-100.69085875 39.4516561 -96.56086376 38.76606332 -92.4140625 38.12890625 C-58.68484117 32.91130937 -26.88365644 21.57487752 0 0 Z " fill="#FEFFFF" transform="translate(443,468)"/>
<path d="M0 0 C3.29869681 1.23342577 6.12328603 2.63415588 9.0625 4.5625 C26.00157278 14.87763686 44.74669496 20.97913553 63.99169922 25.18969727 C71.13942929 26.76109996 78.06013698 28.66289907 85 31 C86.65515625 31.55107422 86.65515625 31.55107422 88.34375 32.11328125 C89.2203125 32.40589844 90.096875 32.69851563 91 33 C91 33.33 91 33.66 91 34 C66.58 34 42.16 34 17 34 C16.67 33.01 16.34 32.02 16 31 C15.34 31 14.68 31 14 31 C14 30.34 14 29.68 14 29 C13.34 29 12.68 29 12 29 C12 28.34 12 27.68 12 27 C11.34 27 10.68 27 10 27 C9.67 25.02 9.34 23.04 9 21 C8.34 21 7.68 21 7 21 C7 19.68 7 18.36 7 17 C6.01 17 5.02 17 4 17 C4 15.02 4 13.04 4 11 C3.34 11 2.68 11 2 11 C2 8.36 2 5.72 2 3 C1.34 3 0.68 3 0 3 C0 2.01 0 1.02 0 0 Z " fill="#FEFFFF" transform="translate(79,478)"/>
<path d="M0 0 C2.39591616 0.14455463 4.79172477 0.29064095 7.1875 0.4375 C8.16879883 0.49647461 8.16879883 0.49647461 9.16992188 0.55664062 C12.37803003 0.75429658 15.58123873 0.96303871 18.7832365 1.24565792 C27.19094929 1.97474961 35.5351606 2.13694072 43.9699707 2.11352539 C45.42014565 2.11324252 46.87032074 2.1134032 48.32049561 2.1139679 C52.21424258 2.11425197 56.10795805 2.10841885 60.00169778 2.10139394 C64.08692018 2.09509494 68.17214349 2.09455146 72.25737 2.09336853 C79.97408321 2.09027436 87.69078207 2.08208706 95.407489 2.07201904 C104.20084972 2.0607981 112.99421116 2.05533245 121.78757727 2.05032361 C139.85839295 2.03990262 157.92919532 2.02234066 176 2 C171.10476244 4.62244869 167.22530611 5.12621046 161.67736816 5.14717102 C160.37660339 5.15432632 159.07583862 5.16148163 157.73565674 5.16885376 C156.29577661 5.17169391 154.85589622 5.17440565 153.41601562 5.17700195 C151.89796799 5.18326937 150.37992188 5.18991642 148.86187744 5.19691467 C143.87667911 5.21793245 138.89148057 5.22831809 133.90625 5.23828125 C132.18661992 5.2423303 130.46698999 5.24644727 128.74736023 5.25063133 C120.66356149 5.26968163 112.57977185 5.2839104 104.49595499 5.2922433 C95.18440412 5.30200155 85.87309186 5.32828468 76.561625 5.36874419 C69.3529219 5.39898446 62.14428686 5.41371984 54.9355216 5.41702431 C50.63592782 5.41936668 46.33658897 5.42821983 42.0370636 5.45348549 C37.98550041 5.47690877 33.9343574 5.48094281 29.88274384 5.47072411 C28.40421392 5.470232 26.92566232 5.47645529 25.44719696 5.49028015 C16.30459782 5.57091368 8.52225811 4.52435296 0 1 C0 0.67 0 0.34 0 0 Z " fill="#797979" transform="translate(158,507)"/>
<path d="M0 0 C-4.8099384 2.57675271 -8.6042418 3.12478462 -14.05371094 3.11352539 C-15.27467468 3.11344986 -16.49563843 3.11337433 -17.75360107 3.11329651 C-19.06725647 3.10813522 -20.38091187 3.10297394 -21.734375 3.09765625 C-23.0962926 3.09579021 -24.45821088 3.09436718 -25.82012939 3.09336853 C-29.39741889 3.08955803 -32.97466752 3.07974032 -36.55194092 3.06866455 C-40.20519457 3.05841884 -43.85845486 3.05386415 -47.51171875 3.04882812 C-54.67449776 3.03811669 -61.83724314 3.02105794 -69 3 C-68.67 2.34 -68.34 1.68 -68 1 C-60.75812156 0.86844965 -53.51622441 0.7379839 -46.27430248 0.60884857 C-42.91047916 0.54883316 -39.546663 0.48846412 -36.18286133 0.42724609 C-32.30291317 0.35681918 -28.42294398 0.28766758 -24.54296875 0.21875 C-23.35293747 0.19687622 -22.16290619 0.17500244 -20.93681335 0.15246582 C-13.95696499 0.02992312 -6.98090448 -0.02781479 0 0 Z " fill="#808080" transform="translate(334,509)"/>
</svg>
