<?xml version="1.0" encoding="UTF-8"?>
<svg version="1.1" xmlns="http://www.w3.org/2000/svg" width="150" height="150">
<path d="M0 0 C25.08 0 50.16 0 76 0 C76 25.08 76 50.16 76 76 C50.92 76 25.84 76 0 76 C0 50.92 0 25.84 0 0 Z " fill="#01AEF0" transform="translate(37,37)"/>
<path d="M0 0 C0.93050171 -0.00700928 1.86100342 -0.01401855 2.81970215 -0.02124023 C5.89572993 -0.03884649 8.97083785 -0.02718794 12.046875 -0.01367188 C14.18392107 -0.01636603 16.32096594 -0.0202478 18.45800781 -0.02526855 C22.93696767 -0.03116718 27.41560847 -0.02258871 31.89453125 -0.00390625 C37.63829952 0.01888325 43.3813202 0.00576216 49.12506104 -0.01819611 C53.53798057 -0.03264409 57.9507226 -0.02805263 62.36364746 -0.01768494 C64.48156828 -0.0150149 66.59950517 -0.01829712 68.71740723 -0.02760315 C71.67662295 -0.03775205 74.63462479 -0.02229048 77.59375 0 C78.47075562 -0.00809692 79.34776123 -0.01619385 80.25134277 -0.02453613 C83.86268288 0.02590913 86.17165423 0.1593015 89.33972168 1.97473145 C91.54985544 5.83158798 91.35484444 9.34578145 91.31445312 13.72070312 C91.3214624 14.65120483 91.32847168 15.58170654 91.33569336 16.54040527 C91.35329961 19.61643306 91.34164106 22.69154097 91.328125 25.76757812 C91.33081915 27.90462419 91.33470093 30.04166907 91.33972168 32.17871094 C91.3456203 36.6576708 91.33704183 41.13631159 91.31835938 45.61523438 C91.29556987 51.35900265 91.30869097 57.10202332 91.33264923 62.84576416 C91.34709721 67.2586837 91.34250576 71.67142573 91.33213806 76.08435059 C91.32946802 78.20227141 91.33275024 80.32020829 91.34205627 82.43811035 C91.35220518 85.39732607 91.3367436 88.35532792 91.31445312 91.31445312 C91.32255005 92.19145874 91.33064697 93.06846436 91.33898926 93.9720459 C91.288544 97.583386 91.15515162 99.89235735 89.33972168 103.0604248 C85.48286515 105.27055857 81.96867167 105.07554756 77.59375 105.03515625 C76.66324829 105.04216553 75.73274658 105.0491748 74.77404785 105.05639648 C71.69802007 105.07400274 68.62291215 105.06234419 65.546875 105.04882812 C63.40982893 105.05152228 61.27278406 105.05540405 59.13574219 105.0604248 C54.65678233 105.06632343 50.17814153 105.05774496 45.69921875 105.0390625 C39.95545048 105.016273 34.2124298 105.02939409 28.46868896 105.05335236 C24.05576943 105.06780034 19.6430274 105.06320888 15.23010254 105.05284119 C13.11218172 105.05017115 10.99424483 105.05345337 8.87634277 105.0627594 C5.91712705 105.0729083 2.95912521 105.05744673 0 105.03515625 C-1.31550842 105.04730164 -1.31550842 105.04730164 -2.65759277 105.05969238 C-6.26893288 105.00924712 -8.57790423 104.87585475 -11.74597168 103.0604248 C-13.95610544 99.20356827 -13.76109444 95.6893748 -13.72070312 91.31445312 C-13.7277124 90.38395142 -13.73472168 89.45344971 -13.74194336 88.49475098 C-13.75954961 85.41872319 -13.74789106 82.34361528 -13.734375 79.26757812 C-13.73706915 77.13053206 -13.74095093 74.99348718 -13.74597168 72.85644531 C-13.7518703 68.37748545 -13.74329183 63.89884466 -13.72460938 59.41992188 C-13.70181987 53.6761536 -13.71494097 47.93313293 -13.73889923 42.18939209 C-13.75334721 37.77647255 -13.74875576 33.36373052 -13.73838806 28.95080566 C-13.73571802 26.83288484 -13.73900024 24.71494796 -13.74830627 22.5970459 C-13.75845518 19.63783018 -13.7429936 16.67982833 -13.72070312 13.72070312 C-13.72880005 12.84369751 -13.73689697 11.96669189 -13.74523926 11.06311035 C-13.694794 7.45177025 -13.56140162 5.1427989 -11.74597168 1.97473145 C-7.88911515 -0.23540232 -4.37492167 -0.04039131 0 0 Z M-4.203125 10.51757812 C-4.30353957 13.129081 -4.33929557 15.71416177 -4.33251953 18.32617188 C-4.33427185 19.14401154 -4.33602417 19.9618512 -4.33782959 20.80447388 C-4.34224885 23.52136323 -4.33930986 26.23818805 -4.3359375 28.95507812 C-4.33661052 30.83455416 -4.33758053 32.71403012 -4.33883667 34.59350586 C-4.34031374 38.53793158 -4.33815879 42.48233471 -4.33349609 46.42675781 C-4.3277988 51.49470315 -4.33107776 56.56259554 -4.33706856 61.63053894 C-4.34067392 65.513147 -4.3395357 69.3957424 -4.33694077 73.27835083 C-4.33627143 75.14755255 -4.33710016 77.01675541 -4.33942032 78.88595581 C-4.34194643 81.49366316 -4.33810684 84.10128354 -4.33251953 86.70898438 C-4.33454376 87.48928009 -4.33656799 88.26957581 -4.33865356 89.07351685 C-4.64784558 92.58835005 -4.64784558 92.58835005 -3.203125 95.51757812 C-0.59162212 95.6179927 1.99345865 95.65374869 4.60546875 95.64697266 C5.42330841 95.64872498 6.24114807 95.65047729 7.08377075 95.65228271 C9.8006601 95.65670197 12.51748493 95.65376299 15.234375 95.65039062 C17.11385104 95.65106364 18.99332699 95.65203365 20.87280273 95.65328979 C24.81722846 95.65476687 28.76163158 95.65261191 32.70605469 95.64794922 C37.77400003 95.64225193 42.84189242 95.64553088 47.90983582 95.65152168 C51.79244387 95.65512704 55.67503928 95.65398883 59.55764771 95.65139389 C61.42684943 95.65072455 63.29605228 95.65155328 65.16525269 95.65387344 C67.77296004 95.65639956 70.38058041 95.65255997 72.98828125 95.64697266 C74.15872482 95.650009 74.15872482 95.650009 75.35281372 95.65310669 C78.86764692 95.9622987 78.86764692 95.9622987 81.796875 94.51757812 C81.89728957 91.90607525 81.93304557 89.32099448 81.92626953 86.70898438 C81.92802185 85.89114471 81.92977417 85.07330505 81.93157959 84.23068237 C81.93599885 81.51379302 81.93305986 78.7969682 81.9296875 76.08007812 C81.93036052 74.20060209 81.93133053 72.32112613 81.93258667 70.44165039 C81.93406374 66.49722467 81.93190879 62.55282154 81.92724609 58.60839844 C81.9215488 53.5404531 81.92482776 48.47256071 81.93081856 43.40461731 C81.93442392 39.52200925 81.9332857 35.63941385 81.93069077 31.75680542 C81.93002143 29.8876037 81.93085016 28.01840084 81.93317032 26.14920044 C81.93569643 23.54149309 81.93185684 20.93387271 81.92626953 18.32617188 C81.92930588 17.1557283 81.92930588 17.1557283 81.93240356 15.9616394 C82.24159558 12.4468062 82.24159558 12.4468062 80.796875 9.51757812 C78.18537212 9.41716355 75.60029135 9.38140756 72.98828125 9.38818359 C72.17044159 9.38643127 71.35260193 9.38467896 70.50997925 9.38287354 C67.7930899 9.37845428 65.07626507 9.38139326 62.359375 9.38476562 C60.47989896 9.38409261 58.60042301 9.3831226 56.72094727 9.38186646 C52.77652154 9.38038938 48.83211842 9.38254434 44.88769531 9.38720703 C39.81974997 9.39290432 34.75185758 9.38962537 29.68391418 9.38363457 C25.80130613 9.38002921 21.91871072 9.38116742 18.03610229 9.38376236 C16.16690057 9.3844317 14.29769772 9.38360297 12.42849731 9.38128281 C9.82078996 9.37875669 7.21316959 9.38259628 4.60546875 9.38818359 C3.43502518 9.38514725 3.43502518 9.38514725 2.24093628 9.38204956 C-1.27389692 9.07285755 -1.27389692 9.07285755 -4.203125 10.51757812 Z " fill="#00AEF0" transform="translate(36.203125,22.482421875)"/>
<path d="M0 0 C3.08181901 2.33892329 5.92009831 4.71324178 8 8 C7.97265625 10.0703125 7.97265625 10.0703125 7 12 C5.07421875 13.5546875 5.07421875 13.5546875 2.6875 14.875 C1.90761719 15.32617188 1.12773438 15.77734375 0.32421875 16.2421875 C-2 17 -2 17 -4.04296875 16.3203125 C-6 15 -6 15 -7.91015625 13.40234375 C-11.83046899 10.77170399 -16.47018736 11.38840809 -21 12 C-24.53214485 14.01836849 -26.80160052 16.07796533 -28 20 C-28.47235231 24.88097387 -28.52269768 27.02670088 -26.1875 31.375 C-23.81979553 34.21624536 -22.23089529 35.81642849 -18.51171875 36.37109375 C-11.58267303 36.53401737 -8.96919163 35.72679204 -4 31 C-0.69710398 31.3323669 1.90535736 32.93101378 4.75 34.5625 C5.54921875 35.01753906 6.3484375 35.47257812 7.171875 35.94140625 C7.77515625 36.29074219 8.3784375 36.64007813 9 37 C5.7319002 44.01155956 -0.1886797 48.58839989 -7.375 51.25 C-15.77400596 52.98772537 -22.73195947 52.04144066 -30.171875 47.74609375 C-36.65034296 43.27692506 -40.47522289 37.40822756 -43 30 C-44.16386926 20.31011174 -42.24181341 12.93002991 -36.3125 5.25 C-26.50201193 -5.48412181 -12.4754212 -6.57562464 0 0 Z " fill="#F8FCFE" transform="translate(92,51)"/>
<path d="M0 0 C3.63 0 7.26 0 11 0 C11.09765625 7.71484375 11.09765625 7.71484375 11 10 C10.67 10.33 10.34 10.66 10 11 C9.79224439 12.66204487 9.63281745 14.33029491 9.5 16 C9.11111111 20.88888889 9.11111111 20.88888889 8 22 C5.5 22.125 5.5 22.125 3 22 C0.96600896 19.96600896 1.50047917 16.0060239 1.28125 13.25 C1.23799335 11.03334648 1.23799335 11.03334648 0 10 C-0.14257189 6.66381769 -0.04228157 3.34024394 0 0 Z " fill="#00AEF0" transform="translate(107,128)"/>
<path d="M0 0 C3.63 0 7.26 0 11 0 C11.09765625 7.71484375 11.09765625 7.71484375 11 10 C10.67 10.33 10.34 10.66 10 11 C9.79224439 12.66204487 9.63281745 14.33029491 9.5 16 C9.11111111 20.88888889 9.11111111 20.88888889 8 22 C5.5 22.125 5.5 22.125 3 22 C0.96600896 19.96600896 1.50047917 16.0060239 1.28125 13.25 C1.23799335 11.03334648 1.23799335 11.03334648 0 10 C-0.14257189 6.66381769 -0.04228157 3.34024394 0 0 Z " fill="#00AEF0" transform="translate(92,128)"/>
<path d="M0 0 C3.63 0 7.26 0 11 0 C11.09765625 7.71484375 11.09765625 7.71484375 11 10 C10.67 10.33 10.34 10.66 10 11 C9.79224439 12.66204487 9.63281745 14.33029491 9.5 16 C9.11111111 20.88888889 9.11111111 20.88888889 8 22 C5.5 22.125 5.5 22.125 3 22 C0.96600896 19.96600896 1.50047917 16.0060239 1.28125 13.25 C1.23799335 11.03334648 1.23799335 11.03334648 0 10 C-0.14257189 6.66381769 -0.04228157 3.34024394 0 0 Z " fill="#00AEF0" transform="translate(77,128)"/>
<path d="M0 0 C3.63 0 7.26 0 11 0 C11.09765625 7.71484375 11.09765625 7.71484375 11 10 C10.67 10.33 10.34 10.66 10 11 C9.79224439 12.66204487 9.63281745 14.33029491 9.5 16 C9.11111111 20.88888889 9.11111111 20.88888889 8 22 C5.5 22.125 5.5 22.125 3 22 C0.96600896 19.96600896 1.50047917 16.0060239 1.28125 13.25 C1.23799335 11.03334648 1.23799335 11.03334648 0 10 C-0.14257189 6.66381769 -0.04228157 3.34024394 0 0 Z " fill="#00AEF0" transform="translate(62,128)"/>
<path d="M0 0 C3.63 0 7.26 0 11 0 C11.09765625 7.71484375 11.09765625 7.71484375 11 10 C10.67 10.33 10.34 10.66 10 11 C9.79224439 12.66204487 9.63281745 14.33029491 9.5 16 C9.11111111 20.88888889 9.11111111 20.88888889 8 22 C5.5 22.125 5.5 22.125 3 22 C0.96600896 19.96600896 1.50047917 16.0060239 1.28125 13.25 C1.23799335 11.03334648 1.23799335 11.03334648 0 10 C-0.14257189 6.66381769 -0.04228157 3.34024394 0 0 Z " fill="#00AEF0" transform="translate(47,128)"/>
<path d="M0 0 C3.63 0 7.26 0 11 0 C11.09765625 7.71484375 11.09765625 7.71484375 11 10 C10.67 10.33 10.34 10.66 10 11 C9.79224439 12.66204487 9.63281745 14.33029491 9.5 16 C9.11111111 20.88888889 9.11111111 20.88888889 8 22 C5.5 22.125 5.5 22.125 3 22 C0.96600896 19.96600896 1.50047917 16.0060239 1.28125 13.25 C1.23799335 11.03334648 1.23799335 11.03334648 0 10 C-0.14257189 6.66381769 -0.04228157 3.34024394 0 0 Z " fill="#00AEF0" transform="translate(32,128)"/>
<path d="M0 0 C7.71484375 -0.09765625 7.71484375 -0.09765625 10 0 C10.33 0.33 10.66 0.66 11 1 C12.66204487 1.20775561 14.33029491 1.36718255 16 1.5 C20.88888889 1.88888889 20.88888889 1.88888889 22 3 C22.125 5.5 22.125 5.5 22 8 C19.96600896 10.03399104 16.0060239 9.49952083 13.25 9.71875 C11.03334648 9.76200665 11.03334648 9.76200665 10 11 C6.66381769 11.14257189 3.34024394 11.04228157 0 11 C0 7.37 0 3.74 0 0 Z " fill="#00AEF0" transform="translate(128,107)"/>
<path d="M0 0 C2.57161458 0.03255208 5.14322917 0.06510417 7.71484375 0.09765625 C7.71484375 3.72765625 7.71484375 7.35765625 7.71484375 11.09765625 C0 11.1953125 0 11.1953125 -2.28515625 11.09765625 C-2.61515625 10.76765625 -2.94515625 10.43765625 -3.28515625 10.09765625 C-4.94720112 9.88990064 -6.61545116 9.7304737 -8.28515625 9.59765625 C-13.17404514 9.20876736 -13.17404514 9.20876736 -14.28515625 8.09765625 C-14.41015625 5.59765625 -14.41015625 5.59765625 -14.28515625 3.09765625 C-12.25116521 1.06366521 -8.29118015 1.59813542 -5.53515625 1.37890625 C-2.90627774 1.05029644 -2.66110976 0.11372264 0 0 Z " fill="#00AEF0" transform="translate(14.28515625,106.90234375)"/>
<path d="M0 0 C7.71484375 -0.09765625 7.71484375 -0.09765625 10 0 C10.33 0.33 10.66 0.66 11 1 C12.66204487 1.20775561 14.33029491 1.36718255 16 1.5 C20.88888889 1.88888889 20.88888889 1.88888889 22 3 C22.125 5.5 22.125 5.5 22 8 C19.96600896 10.03399104 16.0060239 9.49952083 13.25 9.71875 C11.03334648 9.76200665 11.03334648 9.76200665 10 11 C6.66381769 11.14257189 3.34024394 11.04228157 0 11 C0 7.37 0 3.74 0 0 Z " fill="#00AEF0" transform="translate(128,92)"/>
<path d="M0 0 C2.57161458 0.03255208 5.14322917 0.06510417 7.71484375 0.09765625 C7.71484375 3.72765625 7.71484375 7.35765625 7.71484375 11.09765625 C0 11.1953125 0 11.1953125 -2.28515625 11.09765625 C-2.61515625 10.76765625 -2.94515625 10.43765625 -3.28515625 10.09765625 C-4.94720112 9.88990064 -6.61545116 9.7304737 -8.28515625 9.59765625 C-13.17404514 9.20876736 -13.17404514 9.20876736 -14.28515625 8.09765625 C-14.41015625 5.59765625 -14.41015625 5.59765625 -14.28515625 3.09765625 C-12.25116521 1.06366521 -8.29118015 1.59813542 -5.53515625 1.37890625 C-2.90627774 1.05029644 -2.66110976 0.11372264 0 0 Z " fill="#00AEF0" transform="translate(14.28515625,91.90234375)"/>
<path d="M0 0 C7.71484375 -0.09765625 7.71484375 -0.09765625 10 0 C10.33 0.33 10.66 0.66 11 1 C12.66204487 1.20775561 14.33029491 1.36718255 16 1.5 C20.88888889 1.88888889 20.88888889 1.88888889 22 3 C22.125 5.5 22.125 5.5 22 8 C19.96600896 10.03399104 16.0060239 9.49952083 13.25 9.71875 C11.03334648 9.76200665 11.03334648 9.76200665 10 11 C6.66381769 11.14257189 3.34024394 11.04228157 0 11 C0 7.37 0 3.74 0 0 Z " fill="#00AEF0" transform="translate(128,77)"/>
<path d="M0 0 C2.57161458 0.03255208 5.14322917 0.06510417 7.71484375 0.09765625 C7.71484375 3.72765625 7.71484375 7.35765625 7.71484375 11.09765625 C0 11.1953125 0 11.1953125 -2.28515625 11.09765625 C-2.61515625 10.76765625 -2.94515625 10.43765625 -3.28515625 10.09765625 C-4.94720112 9.88990064 -6.61545116 9.7304737 -8.28515625 9.59765625 C-13.17404514 9.20876736 -13.17404514 9.20876736 -14.28515625 8.09765625 C-14.41015625 5.59765625 -14.41015625 5.59765625 -14.28515625 3.09765625 C-12.25116521 1.06366521 -8.29118015 1.59813542 -5.53515625 1.37890625 C-2.90627774 1.05029644 -2.66110976 0.11372264 0 0 Z " fill="#00AEF0" transform="translate(14.28515625,76.90234375)"/>
<path d="M0 0 C7.71484375 -0.09765625 7.71484375 -0.09765625 10 0 C10.33 0.33 10.66 0.66 11 1 C12.66204487 1.20775561 14.33029491 1.36718255 16 1.5 C20.88888889 1.88888889 20.88888889 1.88888889 22 3 C22.125 5.5 22.125 5.5 22 8 C19.96600896 10.03399104 16.0060239 9.49952083 13.25 9.71875 C11.03334648 9.76200665 11.03334648 9.76200665 10 11 C6.66381769 11.14257189 3.34024394 11.04228157 0 11 C0 7.37 0 3.74 0 0 Z " fill="#00AEF0" transform="translate(128,62)"/>
<path d="M0 0 C2.57161458 0.03255208 5.14322917 0.06510417 7.71484375 0.09765625 C7.71484375 3.72765625 7.71484375 7.35765625 7.71484375 11.09765625 C0 11.1953125 0 11.1953125 -2.28515625 11.09765625 C-2.61515625 10.76765625 -2.94515625 10.43765625 -3.28515625 10.09765625 C-4.94720112 9.88990064 -6.61545116 9.7304737 -8.28515625 9.59765625 C-13.17404514 9.20876736 -13.17404514 9.20876736 -14.28515625 8.09765625 C-14.41015625 5.59765625 -14.41015625 5.59765625 -14.28515625 3.09765625 C-12.25116521 1.06366521 -8.29118015 1.59813542 -5.53515625 1.37890625 C-2.90627774 1.05029644 -2.66110976 0.11372264 0 0 Z " fill="#00AEF0" transform="translate(14.28515625,61.90234375)"/>
<path d="M0 0 C7.71484375 -0.09765625 7.71484375 -0.09765625 10 0 C10.33 0.33 10.66 0.66 11 1 C12.66204487 1.20775561 14.33029491 1.36718255 16 1.5 C20.88888889 1.88888889 20.88888889 1.88888889 22 3 C22.125 5.5 22.125 5.5 22 8 C19.96600896 10.03399104 16.0060239 9.49952083 13.25 9.71875 C11.03334648 9.76200665 11.03334648 9.76200665 10 11 C6.66381769 11.14257189 3.34024394 11.04228157 0 11 C0 7.37 0 3.74 0 0 Z " fill="#00AEF0" transform="translate(128,47)"/>
<path d="M0 0 C2.57161458 0.03255208 5.14322917 0.06510417 7.71484375 0.09765625 C7.71484375 3.72765625 7.71484375 7.35765625 7.71484375 11.09765625 C0 11.1953125 0 11.1953125 -2.28515625 11.09765625 C-2.61515625 10.76765625 -2.94515625 10.43765625 -3.28515625 10.09765625 C-4.94720112 9.88990064 -6.61545116 9.7304737 -8.28515625 9.59765625 C-13.17404514 9.20876736 -13.17404514 9.20876736 -14.28515625 8.09765625 C-14.41015625 5.59765625 -14.41015625 5.59765625 -14.28515625 3.09765625 C-12.25116521 1.06366521 -8.29118015 1.59813542 -5.53515625 1.37890625 C-2.90627774 1.05029644 -2.66110976 0.11372264 0 0 Z " fill="#00AEF0" transform="translate(14.28515625,46.90234375)"/>
<path d="M0 0 C7.71484375 -0.09765625 7.71484375 -0.09765625 10 0 C10.33 0.33 10.66 0.66 11 1 C12.66204487 1.20775561 14.33029491 1.36718255 16 1.5 C20.88888889 1.88888889 20.88888889 1.88888889 22 3 C22.125 5.5 22.125 5.5 22 8 C19.96600896 10.03399104 16.0060239 9.49952083 13.25 9.71875 C11.03334648 9.76200665 11.03334648 9.76200665 10 11 C6.66381769 11.14257189 3.34024394 11.04228157 0 11 C0 7.37 0 3.74 0 0 Z " fill="#00AEF0" transform="translate(128,32)"/>
<path d="M0 0 C2.57161458 0.03255208 5.14322917 0.06510417 7.71484375 0.09765625 C7.71484375 3.72765625 7.71484375 7.35765625 7.71484375 11.09765625 C0 11.1953125 0 11.1953125 -2.28515625 11.09765625 C-2.61515625 10.76765625 -2.94515625 10.43765625 -3.28515625 10.09765625 C-4.94720112 9.88990064 -6.61545116 9.7304737 -8.28515625 9.59765625 C-13.17404514 9.20876736 -13.17404514 9.20876736 -14.28515625 8.09765625 C-14.41015625 5.59765625 -14.41015625 5.59765625 -14.28515625 3.09765625 C-12.25116521 1.06366521 -8.29118015 1.59813542 -5.53515625 1.37890625 C-2.90627774 1.05029644 -2.66110976 0.11372264 0 0 Z " fill="#00AEF0" transform="translate(14.28515625,31.90234375)"/>
<path d="M0 0 C2.5 0.125 2.5 0.125 3.5 1.125 C3.82237212 3.70397694 4.01267304 6.28431821 4.21875 8.875 C4.26200665 11.09165352 4.26200665 11.09165352 5.5 12.125 C5.64257189 15.46118231 5.54228157 18.78475606 5.5 22.125 C1.87 22.125 -1.76 22.125 -5.5 22.125 C-5.59765625 14.41015625 -5.59765625 14.41015625 -5.5 12.125 C-5.17 11.795 -4.84 11.465 -4.5 11.125 C-4.29224439 9.46295513 -4.13281745 7.79470509 -4 6.125 C-3.52681118 0.17634056 -3.52681118 0.17634056 0 0 Z " fill="#00AEF0" transform="translate(112.5,-0.125)"/>
<path d="M0 0 C2.5 0.125 2.5 0.125 3.5 1.125 C3.82237212 3.70397694 4.01267304 6.28431821 4.21875 8.875 C4.26200665 11.09165352 4.26200665 11.09165352 5.5 12.125 C5.64257189 15.46118231 5.54228157 18.78475606 5.5 22.125 C1.87 22.125 -1.76 22.125 -5.5 22.125 C-5.59765625 14.41015625 -5.59765625 14.41015625 -5.5 12.125 C-5.17 11.795 -4.84 11.465 -4.5 11.125 C-4.29224439 9.46295513 -4.13281745 7.79470509 -4 6.125 C-3.52681118 0.17634056 -3.52681118 0.17634056 0 0 Z " fill="#00AEF0" transform="translate(97.5,-0.125)"/>
<path d="M0 0 C2.5 0.125 2.5 0.125 3.5 1.125 C3.82237212 3.70397694 4.01267304 6.28431821 4.21875 8.875 C4.26200665 11.09165352 4.26200665 11.09165352 5.5 12.125 C5.64257189 15.46118231 5.54228157 18.78475606 5.5 22.125 C1.87 22.125 -1.76 22.125 -5.5 22.125 C-5.59765625 14.41015625 -5.59765625 14.41015625 -5.5 12.125 C-5.17 11.795 -4.84 11.465 -4.5 11.125 C-4.29224439 9.46295513 -4.13281745 7.79470509 -4 6.125 C-3.52681118 0.17634056 -3.52681118 0.17634056 0 0 Z " fill="#00AEF0" transform="translate(82.5,-0.125)"/>
<path d="M0 0 C2.5 0.125 2.5 0.125 3.5 1.125 C3.82237212 3.70397694 4.01267304 6.28431821 4.21875 8.875 C4.26200665 11.09165352 4.26200665 11.09165352 5.5 12.125 C5.64257189 15.46118231 5.54228157 18.78475606 5.5 22.125 C1.87 22.125 -1.76 22.125 -5.5 22.125 C-5.59765625 14.41015625 -5.59765625 14.41015625 -5.5 12.125 C-5.17 11.795 -4.84 11.465 -4.5 11.125 C-4.29224439 9.46295513 -4.13281745 7.79470509 -4 6.125 C-3.52681118 0.17634056 -3.52681118 0.17634056 0 0 Z " fill="#00AEF0" transform="translate(67.5,-0.125)"/>
<path d="M0 0 C2.5 0.125 2.5 0.125 3.5 1.125 C3.82237212 3.70397694 4.01267304 6.28431821 4.21875 8.875 C4.26200665 11.09165352 4.26200665 11.09165352 5.5 12.125 C5.64257189 15.46118231 5.54228157 18.78475606 5.5 22.125 C1.87 22.125 -1.76 22.125 -5.5 22.125 C-5.59765625 14.41015625 -5.59765625 14.41015625 -5.5 12.125 C-5.17 11.795 -4.84 11.465 -4.5 11.125 C-4.29224439 9.46295513 -4.13281745 7.79470509 -4 6.125 C-3.52681118 0.17634056 -3.52681118 0.17634056 0 0 Z " fill="#00AEF0" transform="translate(52.5,-0.125)"/>
<path d="M0 0 C2.5 0.125 2.5 0.125 3.5 1.125 C3.82237212 3.70397694 4.01267304 6.28431821 4.21875 8.875 C4.26200665 11.09165352 4.26200665 11.09165352 5.5 12.125 C5.64257189 15.46118231 5.54228157 18.78475606 5.5 22.125 C1.87 22.125 -1.76 22.125 -5.5 22.125 C-5.59765625 14.41015625 -5.59765625 14.41015625 -5.5 12.125 C-5.17 11.795 -4.84 11.465 -4.5 11.125 C-4.29224439 9.46295513 -4.13281745 7.79470509 -4 6.125 C-3.52681118 0.17634056 -3.52681118 0.17634056 0 0 Z " fill="#00AEF0" transform="translate(37.5,-0.125)"/>
</svg>
