<?xml version="1.0" standalone="no"?>
<!DOCTYPE svg PUBLIC "-//W3C//DTD SVG 20010904//EN"
 "http://www.w3.org/TR/2001/REC-SVG-20010904/DTD/svg10.dtd">
<svg version="1.0" xmlns="http://www.w3.org/2000/svg"
 width="338.000000pt" height="350.000000pt" viewBox="0 0 338.000000 350.000000"
 preserveAspectRatio="xMidYMid meet">

<g transform="translate(0.000000,350.000000) scale(0.100000,-0.100000)"
fill="#000000" stroke="none">
<path d="M1668 3098 c-9 -7 -20 -25 -23 -39 -6 -23 -2 -27 33 -37 67 -20 254
-117 351 -182 161 -108 355 -310 464 -483 43 -67 104 -188 136 -269 24 -60 32
-65 75 -48 24 9 26 14 26 77 -1 154 -66 377 -152 520 -136 226 -392 403 -653
452 -100 19 -239 24 -257 9z"/>
<path d="M1229 2962 c-25 -15 -67 -43 -92 -62 l-46 -35 -1 -87 0 -88 68 0 c85
0 219 -23 316 -55 436 -142 754 -517 820 -966 9 -59 16 -125 16 -146 0 -39 1
-41 38 -47 20 -3 56 -6 79 -6 36 0 46 5 80 44 21 24 54 70 73 101 l34 58 -23
111 c-41 205 -116 384 -231 557 -81 121 -283 324 -400 401 -166 110 -369 195
-552 232 -104 22 -125 20 -179 -12z"/>
<path d="M865 2888 c-109 -121 -208 -309 -251 -475 -32 -123 -43 -324 -24
-452 45 -309 225 -602 481 -784 94 -66 260 -143 376 -174 78 -20 129 -27 253
-30 171 -6 273 8 409 53 146 49 335 160 420 248 l31 32 -29 28 -29 28 -76 -61
c-213 -169 -423 -243 -686 -243 -204 0 -372 44 -540 142 -114 66 -261 192
-169 144 83 -43 187 -6 229 81 27 55 22 110 -15 166 -45 69 -158 92 -226 46
-74 -49 -101 -144 -64 -217 45 -86 -66 40 -136 156 -50 81 -98 198 -125 304
-29 113 -27 394 3 505 46 167 109 290 219 427 l62 76 -27 26 c-15 14 -30 26
-33 26 -3 0 -27 -24 -53 -52z"/>
<path d="M1023 2556 c-104 -34 -186 -106 -231 -205 -22 -47 -26 -71 -27 -151
0 -88 3 -100 33 -162 60 -122 162 -189 318 -208 107 -13 185 -51 242 -116 99
-111 110 -280 27 -406 l-25 -37 53 -45 c44 -37 64 -47 129 -60 115 -24 113
-25 147 48 51 105 64 175 59 306 -8 186 -72 328 -205 450 -105 96 -278 169
-400 170 -61 0 -96 66 -55 103 42 39 211 8 361 -64 92 -45 115 -62 195 -142
50 -51 106 -118 125 -150 75 -127 120 -316 107 -445 -7 -64 -28 -169 -41 -203
-5 -13 9 -22 64 -42 l71 -26 67 20 c109 34 120 42 132 98 18 86 24 232 12 328
-54 442 -364 800 -796 920 -112 31 -297 41 -362 19z"/>
<path d="M699 725 c-29 -16 -59 -56 -59 -79 0 -9 -9 -20 -20 -26 -22 -12 -28
-50 -7 -50 7 0 21 -19 32 -42 11 -23 33 -51 48 -62 38 -28 100 -27 128 1 28
28 19 58 -14 48 -58 -18 -66 -17 -91 8 -40 40 -33 47 44 47 68 0 70 1 70 25 0
24 -2 25 -71 25 -61 0 -70 2 -65 16 3 9 6 17 6 20 0 2 14 10 30 19 23 12 35
13 51 5 27 -15 49 -6 49 19 0 39 -78 55 -131 26z"/>
<path d="M901 714 c-23 -19 -31 -34 -31 -58 0 -44 26 -65 102 -85 50 -13 63
-20 63 -36 0 -29 -47 -43 -88 -26 -51 21 -72 19 -75 -7 -3 -18 5 -26 39 -41
97 -44 204 11 183 94 -9 36 -35 54 -95 65 -29 6 -60 17 -67 24 -12 12 -10 17
12 31 23 15 32 16 72 5 48 -14 69 -6 59 22 -9 22 -50 38 -100 38 -32 0 -51 -7
-74 -26z"/>
<path d="M1137 733 c-10 -10 -8 -266 2 -282 5 -8 16 -11 25 -8 12 5 16 21 16
67 l0 60 54 0 c44 0 60 5 85 26 40 33 43 83 6 119 -21 22 -33 25 -103 25 -43
0 -82 -3 -85 -7z m148 -60 c16 -16 16 -18 -6 -35 -15 -13 -35 -18 -58 -16 -33
3 -36 6 -39 36 -3 32 -3 32 42 32 29 0 51 -6 61 -17z"/>
<path d="M1387 732 c-4 -6 -11 -244 -8 -279 1 -19 25 -16 44 5 11 12 17 36 17
65 0 45 1 47 28 47 41 0 62 -20 69 -65 7 -47 19 -65 44 -65 20 0 34 33 22 52
-17 27 -31 103 -22 120 17 32 10 78 -16 103 -21 22 -33 25 -99 25 -41 0 -77
-3 -79 -8z m142 -56 c24 -29 -8 -56 -66 -56 -20 0 -23 5 -23 35 0 34 1 35 39
35 21 0 44 -6 50 -14z"/>
<path d="M1702 720 c-20 -12 -41 -37 -50 -60 -10 -22 -23 -40 -29 -40 -7 0
-13 -11 -13 -25 0 -15 6 -25 14 -25 8 0 17 -13 21 -29 12 -55 91 -108 146 -96
34 8 61 37 53 59 -7 18 -39 22 -49 6 -11 -18 -51 -11 -73 13 -37 39 -29 47 49
47 67 0 70 1 67 23 -3 20 -9 22 -70 25 -38 2 -68 7 -68 13 0 5 12 21 26 35 18
19 31 24 47 19 42 -13 61 -10 65 9 9 46 -77 62 -136 26z"/>
<path d="M1925 728 c-32 -17 -45 -39 -45 -75 0 -44 29 -68 101 -82 65 -13 85
-34 54 -57 -25 -18 -63 -18 -99 1 -35 19 -56 13 -56 -14 0 -36 62 -57 153 -52
34 2 67 47 67 90 0 48 -24 69 -98 82 -55 11 -83 32 -64 51 13 13 58 14 110 3
28 -6 32 -5 32 13 0 12 -10 28 -22 36 -26 18 -103 21 -133 4z"/>
<path d="M2151 714 c-23 -19 -31 -34 -31 -58 0 -44 26 -65 102 -85 50 -13 63
-20 63 -36 0 -29 -47 -43 -88 -26 -51 21 -72 19 -75 -7 -3 -18 5 -26 37 -40
57 -26 135 -16 168 22 50 58 16 118 -77 137 -75 14 -91 31 -56 55 23 14 32 15
72 4 48 -14 69 -6 59 22 -9 22 -50 38 -100 38 -32 0 -51 -7 -74 -26z"/>
<path d="M2390 596 c0 -146 6 -170 36 -145 12 10 14 37 12 148 -3 132 -4 136
-25 139 -23 3 -23 3 -23 -142z"/>
<path d="M2526 719 c-20 -16 -26 -29 -26 -60 0 -28 -4 -39 -15 -39 -19 0 -20
-36 -1 -47 10 -5 16 -29 18 -68 3 -52 6 -60 23 -60 18 0 20 8 23 62 l3 62 67
3 c61 3 67 5 70 26 3 21 0 22 -67 22 -69 0 -71 1 -71 25 0 39 42 54 85 31 62
-34 92 8 33 44 -44 26 -108 26 -142 -1z"/>
</g>
</svg>
