<?xml version="1.0" encoding="UTF-8"?>
<svg version="1.1" xmlns="http://www.w3.org/2000/svg" width="1200" height="1200">
<path d="M0 0 C396 0 792 0 1200 0 C1200 396 1200 792 1200 1200 C804 1200 408 1200 0 1200 C0 804 0 408 0 0 Z " fill="#D00000" transform="translate(0,0)"/>
<path d="M0 0 C3.37047009 0.06153582 6.73709335 0.02642058 10.10771465 -0.00948524 C13.38334195 -0.03384688 16.65673293 -0.00352885 19.93204689 0.04341507 C21.48307856 0.06063293 23.03435571 0.06310618 24.58542442 0.04963303 C31.93542379 0.01841496 38.09052175 0.25271327 43.69916248 5.49830055 C45.8838949 7.7851093 47.87381599 10.19529356 49.83984375 12.67114258 C51.16772522 14.175971 52.4998301 15.67710737 53.83984375 17.17114258 C54.61328125 18.08379883 54.61328125 18.08379883 55.40234375 19.01489258 C56.7834796 20.69360453 56.7834796 20.69360453 58.40661603 21.98706752 C60.28183647 24.19049405 60.21296304 25.40338837 60.20898724 28.2725935 C60.21496038 29.22256684 60.22093353 30.17254019 60.22708768 31.15130061 C60.21834915 32.19700907 60.20961063 33.24271754 60.2006073 34.32011414 C60.20317057 35.4293201 60.20573385 36.53852606 60.2083748 37.68134433 C60.21333646 41.41726566 60.19678012 45.15278746 60.18041992 48.88867188 C60.17957416 51.55904047 60.17991552 54.2293842 60.18174744 56.89974976 C60.18332194 62.65868493 60.17389431 68.41751828 60.15703392 74.17642784 C60.1326724 82.50286905 60.12484158 90.82926093 60.12106995 99.15573392 C60.11450098 112.66423465 60.09452777 126.1726811 60.06616211 139.68115234 C60.03863304 152.80484749 60.01739383 165.92852791 60.00463867 179.05224609 C60.0038505 179.86093372 60.00306233 180.66962136 60.00225028 181.50281467 C59.99833522 185.55968599 59.99454408 189.6165574 59.99081457 193.67342889 C59.9597048 227.33937283 59.90685691 261.00525105 59.83984375 294.67114258 C61.09511739 293.58228027 62.34900556 292.49182066 63.60233212 291.40071774 C64.30074402 290.79364512 64.99915592 290.18657251 65.71873182 289.56110376 C69.14356085 286.50949963 72.37571978 283.27443019 75.61352539 280.02685547 C76.34472092 279.29741226 77.07591644 278.56796906 77.82926941 277.81642151 C80.22201747 275.42803937 82.61113036 273.0360597 85 270.64379883 C86.67558959 268.96888379 88.35132752 267.29411714 90.02720642 265.61949158 C93.52961202 262.11855583 97.03021405 258.6158293 100.52954102 255.11181641 C105.00022633 250.63543427 109.47538647 246.16355695 113.95191288 241.69301701 C117.41023635 238.23831839 120.86616054 234.78122753 124.32137871 231.32342339 C125.96996236 229.67417579 127.6192805 228.02566201 129.26936531 226.37791634 C131.58053351 224.06930633 133.88844046 221.75748272 136.19555664 219.44482422 C136.86847748 218.77392761 137.54139832 218.10303101 138.23471069 217.4118042 C141.28597143 214.34704775 144.25087613 211.24560443 147.0791502 207.97305202 C150.88433719 203.60337339 154.77216784 199.31450283 158.68414307 195.04040527 C159.4451506 194.2086923 160.20615814 193.37697932 160.99022651 192.52006292 C163.52671193 189.75128765 166.06598297 186.98509736 168.60644531 184.2199707 C169.05004599 183.73704009 169.49364667 183.25410947 169.95068979 182.75654459 C187.59568449 163.55282967 205.51162966 144.61451588 223.5712166 125.8005847 C226.46053376 122.79020284 229.34764871 119.7777176 232.23339844 116.76391602 C232.80757538 116.16433584 233.38175232 115.56475567 233.97332856 114.9470064 C242.03193915 106.52252226 249.95969 97.99098327 257.79600912 89.35955226 C271.31146838 74.47297231 285.04328752 59.82749528 299.23046875 45.57739258 C300.05172717 44.75093821 300.05172717 44.75093821 300.88957667 43.9077878 C328.91278471 15.77285582 353.69471362 -4.87820959 395.54534912 -5.17224121 C414.54447417 -4.86734464 433.30792168 -2.45134103 451.83984375 1.67114258 C452.95611639 3.90040071 454.07203112 6.12983681 455.18774414 8.359375 C455.65795864 9.29828205 455.65795864 9.29828205 456.13767242 10.25615692 C458.58002953 15.13777638 460.99251419 20.02633772 463.27734375 24.98364258 C463.80231445 26.06355469 463.80231445 26.06355469 464.33789062 27.1652832 C464.83192383 28.24519531 464.83192383 28.24519531 465.3359375 29.34692383 C465.77184204 30.27371948 465.77184204 30.27371948 466.21655273 31.21923828 C467.21362698 35.14153231 467.58964764 38.6637181 466.83984375 42.67114258 C464.93739209 45.86106178 462.41857519 48.27505196 459.75646973 50.84353638 C458.99440641 51.61399508 458.23234309 52.38445379 457.44718695 53.17825973 C454.88870525 55.75390404 452.299376 58.29608022 449.70898438 60.83959961 C447.86784494 62.67983738 446.02867877 64.5220512 444.19134521 66.36608887 C439.71505975 70.85155684 435.21541458 75.3128639 430.70774943 79.76677074 C425.45507514 84.95892224 420.22757017 90.176112 415.00132865 95.3948469 C405.67094971 104.71040916 396.32029711 114.00534448 386.95703125 123.2878418 C377.88146951 132.28519128 368.81672256 141.29322377 359.765625 150.31518555 C359.20859306 150.87041838 358.65156111 151.42565122 358.07764941 151.99770929 C355.83831535 154.22988574 353.59904106 156.46212212 351.35984984 158.69444186 C334.17359036 175.82748579 316.9775691 192.95088139 299.74817657 210.04055786 C297.944675 211.8299853 296.14194861 213.62019441 294.340065 215.41125107 C291.87534726 217.86071211 289.40764172 220.30712285 286.93908691 222.75271606 C286.23089137 223.45768538 285.52269582 224.16265469 284.7930398 224.88898671 C280.82992762 228.80754481 276.76852952 232.55928548 272.54429966 236.19542342 C270.40653628 238.04630049 268.36299606 239.97986589 266.33569336 241.95068359 C265.55226059 242.71159805 264.76882782 243.47251251 263.96165466 244.25648499 C260.47262634 247.6735937 256.99142719 251.09845103 253.51879883 254.53222656 C251.68207795 256.34212206 249.83823115 258.14481274 247.98754883 259.94042969 C245.30555802 262.54374055 242.64687697 265.16893909 239.9921875 267.80004883 C239.15904526 268.60019913 238.32590302 269.40034943 237.46751404 270.2247467 C233.00920319 274.40282288 233.00920319 274.40282288 231.7434082 280.08032227 C232.92727622 282.87774096 234.21011492 284.96949144 236.08984375 287.35864258 C239.82877093 292.28421509 243.36794567 297.30374253 246.83984375 302.42114258 C251.79637368 309.70186737 256.8017827 316.94660525 261.83984375 324.17114258 C268.40218239 333.58585469 274.90193187 343.04137373 281.37109375 352.52026367 C288.78615342 363.37908609 296.27949698 374.18224632 303.79614258 384.97094727 C308.53505858 391.77904627 313.23214951 398.61425697 317.90576172 405.46728516 C322.18069819 411.72743545 326.50490265 417.95242857 330.83984375 424.17114258 C337.40199111 433.58598927 343.90193054 443.04137179 350.37109375 452.52026367 C357.10171647 462.37677734 363.89220957 472.19061532 370.71484375 481.98364258 C377.31750561 491.46173253 383.85962356 500.97938181 390.37109375 510.52026367 C397.78615342 521.37908609 405.27949698 532.18224632 412.79614258 542.97094727 C417.53505858 549.77904627 422.23214951 556.61425697 426.90576172 563.46728516 C431.18069819 569.72743545 435.50490265 575.95242857 439.83984375 582.17114258 C446.39896887 591.5816532 452.89605376 601.03259882 459.36230469 610.50708008 C461.22043112 613.22856598 463.08044174 615.94873448 464.94506836 618.66577148 C465.82587901 619.95026684 466.70434049 621.23637659 467.58032227 622.52416992 C470.20368554 626.36293361 472.90459765 630.12984508 475.671875 633.86645508 C476.32164307 634.75727783 476.97141113 635.64810059 477.64086914 636.56591797 C478.91420425 638.30883827 480.20320057 640.04045291 481.50952148 641.75878906 C482.08774658 642.55615479 482.66597168 643.35352051 483.26171875 644.17504883 C483.7834668 644.8744458 484.30521484 645.57384277 484.84277344 646.29443359 C486.30285242 649.77481285 485.70468353 652.03249039 484.83984375 655.67114258 C483.38110352 659.08032227 483.38110352 659.08032227 481.53125 662.59301758 C481.20446762 663.21968323 480.87768524 663.84634888 480.54100037 664.49200439 C479.5044268 666.47362779 478.45350588 668.44722663 477.40234375 670.42114258 C476.70025533 671.76050628 475.99907485 673.10034633 475.29882812 674.44067383 C470.26797623 684.02894385 470.26797623 684.02894385 467.83984375 687.67114258 C464.71474055 688.01022545 461.78371521 688.15338606 458.65185547 688.17041016 C457.69881027 688.18691116 456.74576508 688.20341217 455.76383972 688.22041321 C452.59902374 688.26947495 449.43465148 688.29467443 446.26953125 688.31567383 C445.18912693 688.32540411 444.10872261 688.33513439 442.99557877 688.34515953 C437.27406062 688.39605139 431.55276742 688.42878059 425.83105469 688.44677734 C419.92535453 688.46878062 414.02214337 688.55115722 408.11726189 688.64789295 C403.57377992 688.71138767 399.03089115 688.73008117 394.48700333 688.73673058 C392.3108353 688.74764021 390.13468306 688.77528224 387.95895004 688.82013893 C370.99926881 689.14606646 370.99926881 689.14606646 365.86186218 685.63713074 C363.76781543 683.08020083 362.30279916 680.62689196 360.83984375 677.67114258 C359.95416061 676.37357743 359.0508487 675.08775535 358.12524414 673.81835938 C357.30792818 672.5888275 356.49543591 671.35607714 355.6875 670.12036133 C355.23460602 669.43680069 354.78171204 668.75324005 354.31509399 668.04896545 C353.34519883 666.58423149 352.37736443 665.11813112 351.41146851 663.65075684 C348.77018718 659.63908149 346.11226667 655.63843325 343.45703125 651.63598633 C342.90873154 650.80857941 342.36043182 649.98117249 341.79551697 649.12869263 C336.09020872 640.52512693 330.3146077 631.96970934 324.52734375 623.42114258 C323.4883329 621.88559954 322.44935197 620.35003626 321.41040039 618.81445312 C319.83109299 616.4804159 318.25167653 614.14645281 316.67195129 611.81269836 C311.12170515 603.61267166 305.58275111 595.40503511 300.04428101 587.197052 C290.77224023 573.45624982 281.49583151 559.7184031 272.21484375 545.98364258 C271.702099 545.22483795 271.18935425 544.46603333 270.66107178 543.68423462 C267.05413296 538.34644456 263.44701064 533.00877852 259.83984375 527.67114258 C255.71471518 521.56706279 251.58967216 515.46292521 247.46484375 509.35864258 C246.69596832 508.22079819 246.69596832 508.22079819 245.91156006 507.05996704 C237.14824561 494.09092827 228.39059413 481.11807252 219.63439941 468.14422607 C210.47659896 454.57549823 201.31504587 441.00931244 192.1484375 427.4465332 C191.12629708 425.93416679 190.10416167 424.421797 189.08203125 422.90942383 C188.32294464 421.78626266 188.32294464 421.78626266 187.54852295 420.64041138 C184.28132311 415.80567039 181.01599924 410.96966716 177.75186157 406.13285828 C175.49179681 402.78398252 173.2311738 399.43548378 170.97052002 396.08700562 C169.90379745 394.50664557 168.83733973 392.92610671 167.7711792 391.34536743 C161.52063865 382.07822683 155.22868538 372.8436368 148.83984375 363.67114258 C145.48940978 365.12302851 143.33498179 366.95310848 140.79296875 369.55786133 C140.02984375 370.33194336 139.26671875 371.10602539 138.48046875 371.90356445 C137.29710937 373.11882812 137.29710937 373.11882812 136.08984375 374.35864258 C131.11944633 379.44087394 126.12932168 384.37248193 120.73339844 389.00244141 C117.62094657 391.74529965 114.74062412 394.70801512 111.83984375 397.67114258 C107.69720627 401.86184863 103.53044448 405.89804886 99.02734375 409.70239258 C95.84163624 412.56952934 92.85399617 415.62546136 89.83984375 418.67114258 C82.55325838 426.03394746 82.55325838 426.03394746 78.83984375 429.17114258 C78.29027512 429.65885132 77.74070648 430.14656006 77.17448425 430.64904785 C75.88213097 431.76838967 74.57696862 432.87495911 73.2258091 433.92256165 C67.21469995 438.62648016 61.05672017 443.54661451 59.6109314 451.38476562 C59.05998289 456.93218615 59.29071073 462.45456155 59.5078125 468.01489258 C59.53797165 470.13878922 59.561566 472.26278757 59.57914734 474.38682556 C59.62905932 478.93852097 59.72149647 483.48660027 59.84686279 488.03683472 C60.04194271 495.25204078 60.11943462 502.46567398 60.17822266 509.68310547 C60.35283418 528.90409302 60.68176679 548.12190483 61.0780592 567.33952141 C61.33790212 579.9771425 61.53288514 592.61218947 61.6094389 605.2523632 C61.65007146 611.24335608 61.73387141 617.22680261 61.92318726 623.21508789 C63.21304855 664.88194267 63.21304855 664.88194267 52.72020912 676.77577686 C45.75812724 683.87894064 37.0340481 689.90300138 26.84319115 690.37807751 C24.70050676 690.34277203 22.57932927 690.20914311 20.44140625 690.06567383 C18.90028488 690.04226793 17.35900529 690.02781323 15.81771851 690.02165222 C12.63406712 689.98691607 9.46458384 689.88209601 6.28515625 689.71533203 C2.23120038 689.50348367 -1.81226445 689.42216092 -5.87122154 689.38593006 C-9.78917652 689.34494359 -13.70457983 689.23826183 -17.62109375 689.12817383 C-18.35262035 689.11349375 -19.08414696 689.09881367 -19.83784103 689.08368874 C-32.74378417 688.75331039 -32.74378417 688.75331039 -37.90698242 684.29614258 C-39.01896933 683.11315526 -40.10499702 681.90508459 -41.16015625 680.67114258 C-42.34823709 679.51000241 -43.54379971 678.35641752 -44.75 677.21411133 C-45.86848355 676.09821986 -46.98439941 674.97974847 -48.09765625 673.85864258 C-48.67322266 673.28694336 -49.24878906 672.71524414 -49.84179688 672.1262207 C-53.60483981 668.35431312 -55.28306014 666.61084797 -55.29240942 661.32184017 C-55.29847072 659.93994235 -55.29847072 659.93994235 -55.30465448 658.53012741 C-55.3040284 657.50928279 -55.30340232 656.48843817 -55.30275726 655.43665886 C-55.30600828 654.35450041 -55.3092593 653.27234196 -55.31260884 652.15739083 C-55.32236459 648.48813051 -55.32490801 644.81889958 -55.32751465 641.14962769 C-55.33295731 638.50960426 -55.33878561 635.86958418 -55.34507036 633.22956288 C-55.35965741 626.70710708 -55.36875285 620.18465384 -55.37615906 613.66218638 C-55.38247658 608.23743598 -55.39113395 602.81269347 -55.4013176 597.38794899 C-55.4035181 596.21534711 -55.4035181 596.21534711 -55.40576305 595.0190563 C-55.40876359 593.42483477 -55.41176783 591.83061326 -55.41477571 590.23639174 C-55.45334286 569.56594153 -55.47831394 548.89547877 -55.50095281 528.22500589 C-55.50389596 525.54768633 -55.50688609 522.87036683 -55.50989079 520.19304734 C-55.54803407 486.15052036 -55.58155864 452.10798889 -55.60314995 418.0654471 C-55.60864428 409.40862153 -55.61434381 400.75179609 -55.62011719 392.0949707 C-55.62074961 391.13838838 -55.62138204 390.18180606 -55.62203363 389.1962364 C-55.64271812 358.1758083 -55.68869095 327.15548481 -55.74876987 296.13510986 C-55.81039666 264.2575541 -55.84935642 232.38005438 -55.85865319 200.50243813 C-55.85996999 196.00194196 -55.86153195 191.5014459 -55.86323547 187.00094986 C-55.86356093 186.11518279 -55.8638864 185.22941571 -55.86422172 184.31680721 C-55.8701032 170.0492122 -55.89969482 155.78175996 -55.93794169 141.51421913 C-55.97582641 127.177872 -55.98809885 112.84168305 -55.97417909 98.50529103 C-55.96667028 89.98398425 -55.97871147 81.46322489 -56.01860226 72.94200537 C-56.04331832 67.25182352 -56.0426672 61.56201147 -56.02130311 55.87181694 C-56.00984997 52.62807102 -56.01334552 49.38558031 -56.04001731 46.14189325 C-56.06702882 42.64721881 -56.05111838 39.15528835 -56.02428436 35.66067314 C-56.05143923 34.15047671 -56.05143923 34.15047671 -56.07914269 32.60977125 C-55.96903556 26.1614064 -54.54094012 22.94097703 -49.90089968 18.42594142 C-48.11636582 16.62699857 -46.95282092 14.86043577 -45.70385742 12.66577148 C-35.35865283 -3.26685275 -16.84185624 -0.43251206 0 0 Z " fill="#FEFEFE" transform="translate(392.16015625,251.328857421875)"/>
<path d="M0 0 C396 0 792 0 1200 0 C1200 396 1200 792 1200 1200 C804 1200 408 1200 0 1200 C0 804 0 408 0 0 Z M20 20 C20 402.8 20 785.6 20 1180 C402.8 1180 785.6 1180 1180 1180 C1180 797.2 1180 414.4 1180 20 C797.2 20 414.4 20 20 20 Z " fill="#FEFEFE" transform="translate(0,0)"/>
</svg>
