<?xml version="1.0" encoding="UTF-8"?>
<svg version="1.1" xmlns="http://www.w3.org/2000/svg" width="300" height="300">
<path d="M0 0 C2.15123975 -0.00542662 4.30247578 -0.0125523 6.45370483 -0.02124023 C12.27188171 -0.03941211 18.08977357 -0.03243132 23.90795517 -0.01972389 C30.01001477 -0.00956443 36.11205072 -0.01899774 42.21411133 -0.02526855 C52.45951701 -0.03253637 62.70480718 -0.02297992 72.95019531 -0.00390625 C84.77853942 0.01786072 96.60660768 0.01080874 108.43494511 -0.01121187 C118.60852696 -0.02939048 128.782026 -0.03191214 138.95561886 -0.0214572 C145.02397619 -0.01523583 151.09220407 -0.01434933 157.16055298 -0.02760315 C162.86689732 -0.03919678 168.5728876 -0.03107156 174.27919388 -0.00802612 C176.36767617 -0.00275781 178.4561885 -0.00422045 180.54465866 -0.01307678 C200.81713148 -0.09108808 200.81713148 -0.09108808 209.73046875 4.51757812 C211.04599983 5.18439228 211.04599983 5.18439228 212.3881073 5.86467743 C225.473921 12.81824659 233.68757579 24.40553965 238.31435585 38.26683617 C238.91701171 41.52658331 238.88206305 44.7654371 238.8843689 48.06851196 C238.88875115 48.83258185 238.8931334 49.59665173 238.89764845 50.38387525 C238.91101128 52.94618629 238.91720967 55.50846296 238.92333984 58.07080078 C238.93124285 59.90736038 238.93951192 61.74391843 238.94812012 63.58047485 C238.97431914 69.61418174 238.9896465 75.64789548 239.00390625 81.68164062 C239.00926696 83.76040018 239.01464447 85.83915969 239.0200386 87.91791916 C239.04166497 96.56675681 239.06040062 105.21559261 239.071661 113.86445045 C239.08789352 126.24996345 239.12105737 138.63516242 239.17806184 151.02055705 C239.2167958 159.7340977 239.23629784 168.44755448 239.24158156 177.16117895 C239.24523049 182.3628305 239.25720318 187.56414694 239.2896843 192.76570511 C239.31982531 197.66269248 239.3260552 202.55914304 239.31430054 207.45620346 C239.3140803 209.24841567 239.32234372 211.04065323 239.33995438 212.83277893 C239.42850454 222.3669222 239.31084563 230.35161558 233.73046875 238.51757812 C233.17359375 239.42507812 232.61671875 240.33257812 232.04296875 241.26757812 C225.39038763 247.74035976 217.1772041 251.47007675 207.91796875 251.83007812 C198.01135495 251.55989775 190.96003046 248.21707014 183.73046875 241.51757812 C179.73046875 237.12733422 179.73046875 237.12733422 179.73046875 234.51757812 C179.07046875 234.51757812 178.41046875 234.51757812 177.73046875 234.51757812 C176.27734375 232.74414062 176.27734375 232.74414062 174.48046875 230.14257812 C170.81476748 224.97486569 167.00713695 219.94691041 163.10546875 214.95507812 C162.50645752 214.18768311 161.90744629 213.42028809 161.2902832 212.62963867 C160.05457254 211.04759545 158.81832071 209.46597479 157.58154297 207.88476562 C154.60535258 204.07875903 151.63617227 200.26731459 148.66796875 196.45507812 C148.16378418 195.80917725 147.65959961 195.16327637 147.14013672 194.49780273 C143.05890247 189.25820884 139.023269 183.98417154 134.99047852 178.70727539 C134.38776375 177.91885506 133.78504898 177.13043472 133.16407013 176.31812286 C131.68607864 174.38470296 130.20821506 172.45118543 128.73046875 170.51757812 C128.71833847 172.11585197 128.71833847 172.11585197 128.70596313 173.74641418 C128.62823337 183.82364955 128.54042794 193.90075434 128.44294167 203.97781849 C128.39315063 209.15763013 128.34681998 214.33742306 128.30859375 219.51733398 C128.27152264 224.52302209 128.22510548 229.52854677 128.17240524 234.53409386 C128.15397661 236.43686726 128.13882687 238.33967555 128.12712479 240.24250221 C128.00808838 258.94155293 126.69871499 274.12136466 113.08203125 288.33007812 C103.51382342 297.23073657 93.19951383 301.14628826 80.22558594 301.00341797 C79.12185638 301.00721466 78.01812683 301.01101135 76.88095093 301.0149231 C73.26278513 301.02228291 69.64543714 301.00101457 66.02734375 300.97851562 C63.50010268 300.97612902 60.97285982 300.97522634 58.44561768 300.97573853 C53.16351993 300.97261866 47.88162962 300.95660413 42.59960938 300.92919922 C36.5044216 300.897691 30.40948639 300.88720571 24.31422305 300.88867033 C18.4291499 300.88989311 12.54414896 300.87944692 6.65909576 300.8630867 C4.16324608 300.85672803 1.66738903 300.85278198 -0.82846832 300.85129929 C-4.31318235 300.84696045 -7.7975805 300.82944833 -11.28222656 300.80810547 C-12.31092865 300.80901184 -13.33963074 300.80991821 -14.39950562 300.81085205 C-27.03843806 300.69772659 -38.04696093 295.05761165 -47.26953125 286.51757812 C-57.00336947 276.23906665 -61.41979304 265.61898747 -61.41670227 251.63827515 C-61.42037896 250.74338273 -61.42405565 249.84849031 -61.42784375 248.92647994 C-61.43885804 245.92738053 -61.44272061 242.9283158 -61.4465332 239.92919922 C-61.45279956 237.77884817 -61.45944651 235.6284982 -61.46644592 233.47814941 C-61.48746839 226.41577913 -61.49784669 219.35340867 -61.5078125 212.29101562 C-61.51186075 209.85783502 -61.51597769 207.42465453 -61.52016258 204.99147415 C-61.53921034 193.55936752 -61.5534422 182.12726732 -61.56177455 170.69514787 C-61.57154548 157.50775402 -61.59786315 144.32052807 -61.63827544 131.13319337 C-61.66845509 120.93427749 -61.6832452 110.73540969 -61.68655556 100.53645003 C-61.68890393 94.44785269 -61.69783696 88.35943482 -61.72301674 82.27088547 C-61.7463346 76.54004074 -61.75051558 70.80949319 -61.74025536 65.07861328 C-61.73976079 62.98044469 -61.74605764 60.88226129 -61.7598114 58.78413773 C-61.88501648 38.54455067 -61.88501648 38.54455067 -57.26953125 29.51757812 C-56.728125 28.37804687 -56.18671875 27.23851562 -55.62890625 26.06445312 C-49.87077794 16.05760877 -42.65862589 9.59638848 -32.26953125 4.51757812 C-31.3045018 4.02302753 -31.3045018 4.02302753 -30.31997681 3.51848602 C-20.58275918 -0.76741416 -10.42138764 -0.04419278 0 0 Z M-16.26953125 45.51757812 C-19.64124926 49.62216264 -19.69542402 53.57268677 -19.65048218 58.67797852 C-19.65516215 59.49543328 -19.65984212 60.31288805 -19.66466391 61.15511417 C-19.67662198 63.89198635 -19.66715355 66.62835855 -19.65771484 69.36523438 C-19.66178018 71.32828056 -19.66712185 73.29132446 -19.67364502 75.25436401 C-19.68732886 80.58486916 -19.68201551 85.91520025 -19.67250776 91.24570847 C-19.66491674 96.82209495 -19.67195523 102.39846645 -19.67666626 107.97485352 C-19.68212543 117.33970823 -19.67492794 126.70449199 -19.66064453 136.06933594 C-19.64431774 146.89902845 -19.64960613 157.72855153 -19.66612375 168.55823994 C-19.67973399 177.85347348 -19.68166052 187.148656 -19.67380774 196.44389629 C-19.6691287 201.99681564 -19.66851276 207.54965533 -19.67841721 213.10256958 C-19.68707784 218.32286645 -19.68108137 223.54294469 -19.66373444 228.76321793 C-19.65976478 230.68006146 -19.66091181 232.59692337 -19.66752243 234.51375961 C-19.67570905 237.12848143 -19.66545134 239.74250078 -19.65048218 242.35717773 C-19.65717434 243.11739259 -19.66386651 243.87760744 -19.67076147 244.66085911 C-19.62107874 249.12886905 -18.99821338 251.95149729 -16.26953125 255.51757812 C-11.89134446 259.22571813 -7.54803482 258.93255701 -2.08886719 258.87402344 C-1.17290771 258.87606781 -0.25694824 258.87811218 0.68676758 258.88021851 C3.70674765 258.88322073 6.72617881 258.86477031 9.74609375 258.84570312 C11.8440538 258.84264524 13.94201588 258.84076934 16.03997803 258.84002686 C20.43135373 258.83542777 24.82254564 258.82101335 29.21386719 258.79882812 C34.85565939 258.77047639 40.49730729 258.75960927 46.13916397 258.75514603 C50.46784928 258.7509999 54.79650514 258.74119035 59.12517548 258.72927094 C61.20649733 258.72355711 63.28782203 258.71880211 65.36914825 258.71500397 C68.26861107 258.70816669 71.16795699 258.6945483 74.06738281 258.67871094 C75.36866119 258.67703415 75.36866119 258.67703415 76.69622803 258.67532349 C80.52276557 259.02095774 80.52276557 259.02095774 83.73046875 257.51757812 C83.83427163 255.91849177 83.86843458 254.31483987 83.87522888 252.71240234 C83.88212738 251.67226486 83.88902588 250.63212738 83.89613342 249.56047058 C83.8987468 248.40936295 83.90136017 247.25825531 83.90405273 246.07226562 C83.91408325 244.26493706 83.91408325 244.26493706 83.92431641 242.4210968 C83.93840861 239.79319887 83.95072877 237.16535729 83.96026421 234.53744507 C83.97570134 230.37623921 83.99965448 226.2151098 84.02516174 222.05395508 C84.09639171 210.21847371 84.15597784 198.38294716 84.20727539 186.54736328 C84.23566011 180.01579902 84.27109264 173.48430944 84.31392914 166.95282364 C84.34058975 162.82321695 84.35856436 158.69369478 84.36996639 154.5640192 C84.38130894 151.37531184 84.40541298 148.18669522 84.42749023 144.99804688 C84.42807938 143.86313309 84.42866852 142.7282193 84.42927551 141.55891418 C84.52665596 130.91038739 85.93413457 122.03835531 92.73046875 113.51757812 C95.5290442 111.05524557 98.43018814 109.23576545 101.73046875 107.51757812 C102.67019531 107.00904297 102.67019531 107.00904297 103.62890625 106.49023438 C111.16291385 103.04112119 120.34349846 103.32772511 128.04296875 106.08007812 C136.31633302 110.03262964 141.9497444 116.60757142 147.35546875 123.83007812 C148.5766041 125.43050552 149.79796465 127.03076111 151.01953125 128.63085938 C151.63473633 129.44248535 152.24994141 130.25411133 152.88378906 131.09033203 C155.80074123 134.92432707 158.76695158 138.71954319 161.73046875 142.51757812 C162.89607004 144.01609196 164.06143409 145.51479034 165.2265625 147.01367188 C167.57102658 150.02816978 169.91757225 153.04103105 172.265625 156.05273438 C173.44148127 157.5617905 174.61726296 159.07090476 175.79296875 160.58007812 C176.36362061 161.31210449 176.93427246 162.04413086 177.5222168 162.79833984 C180.52564138 166.65800202 183.50847005 170.53188739 186.46484375 174.42773438 C187.06546631 175.21849365 187.66608887 176.00925293 188.28491211 176.82397461 C189.43703644 178.34344757 190.58639312 179.86502396 191.73266602 181.38891602 C193.04214775 183.11624279 194.38295509 184.81975389 195.73046875 186.51757812 C196.06046875 186.51757812 196.39046875 186.51757812 196.73046875 186.51757812 C196.75381238 168.3156596 196.77145514 150.11374494 196.78228092 131.91181469 C196.78744076 123.46065458 196.79447753 115.00950376 196.8059082 106.55834961 C196.81586455 99.19371879 196.82232445 91.8290947 196.82455724 84.46445733 C196.82586273 80.56369558 196.82893838 76.66295308 196.83619881 72.76219749 C196.842974 69.09249223 196.84508264 65.42281419 196.84357643 61.75310326 C196.84398375 59.76053903 196.84937117 57.76797778 196.85488892 55.77542114 C196.85282692 54.0022628 196.85282692 54.0022628 196.85072327 52.19328308 C196.85164506 51.16364032 196.85256685 50.13399755 196.85351658 49.0731535 C196.83996817 46.39568177 196.83996817 46.39568177 195.73046875 43.51757812 C192.57905951 41.9418735 189.20130019 42.37333328 185.74101257 42.37713623 C184.48804869 42.37267955 184.48804869 42.37267955 183.20977241 42.36813283 C180.39463972 42.3594213 177.57954942 42.35793552 174.7644043 42.35644531 C172.7525422 42.35181887 170.74068099 42.34679445 168.7288208 42.34140015 C163.2515058 42.32825729 157.77420307 42.32182751 152.29687476 42.31738949 C148.87727997 42.31446177 145.45768857 42.31035753 142.03809547 42.30588531 C131.34602425 42.29220535 120.65396071 42.28254117 109.96188134 42.27868342 C97.60642238 42.27420145 85.25107399 42.25664915 72.89564866 42.22768283 C63.35420557 42.20608779 53.81279364 42.19598031 44.27132636 42.19464231 C38.56855863 42.1935927 32.86589476 42.18765198 27.16315269 42.16982269 C21.79928518 42.15337969 16.4356 42.15116816 11.07171631 42.1599617 C9.10165228 42.1607341 7.13157859 42.15636273 5.16153908 42.14650345 C2.47443248 42.13384299 -0.21202254 42.13962852 -2.89912415 42.15008545 C-3.6808401 42.14202904 -4.46255605 42.13397264 -5.26796037 42.1256721 C-9.7838968 42.16684335 -12.75287721 42.60993139 -16.26953125 45.51757812 Z " fill="#25E5B7" transform="translate(61.26953125,-0.517578125)"/>
<path d="M0 0 C11.89945923 -0.8980724 22.45756091 4.78198161 31.56640625 12.046875 C39.27508077 19.06118036 46.0687445 29.55389805 48 40 C48.10178429 42.52600889 48.1521367 45.02483783 48.15390015 47.55093384 C48.16047353 48.69703867 48.16047353 48.69703867 48.1671797 49.86629713 C48.18054253 52.42860817 48.18674092 54.99088483 48.19287109 57.55322266 C48.2007741 59.38978225 48.20904317 61.2263403 48.21765137 63.06289673 C48.24385039 69.09660361 48.25917775 75.13031735 48.2734375 81.1640625 C48.27879821 83.24282205 48.28417572 85.32158157 48.28956985 87.40034103 C48.31119622 96.04917869 48.32993187 104.69801449 48.34119225 113.34687233 C48.35742477 125.73238533 48.39058862 138.1175843 48.44759309 150.50297892 C48.48632705 159.21651957 48.50582909 167.92997635 48.51111281 176.64360082 C48.51476174 181.84525237 48.52673443 187.04656882 48.55921555 192.24812698 C48.58935656 197.14511436 48.59558645 202.04156491 48.58383179 206.93862534 C48.58361155 208.73083755 48.59187497 210.52307511 48.60948563 212.31520081 C48.69803579 221.84934407 48.58037688 229.83403746 43 238 C42.443125 238.9075 41.88625 239.815 41.3125 240.75 C34.65991888 247.22278163 26.44673535 250.95249863 17.1875 251.3125 C7.2808862 251.04231962 0.22956171 247.69949201 -7 241 C-11 236.6097561 -11 236.6097561 -11 234 C-11.66 234 -12.32 234 -13 234 C-14.453125 232.2265625 -14.453125 232.2265625 -16.25 229.625 C-19.91570127 224.45728757 -23.7233318 219.42933229 -27.625 214.4375 C-28.52351685 213.28640747 -28.52351685 213.28640747 -29.44018555 212.11206055 C-30.67589621 210.53001732 -31.91214804 208.94839666 -33.14892578 207.3671875 C-36.12511617 203.56118091 -39.09429648 199.74973646 -42.0625 195.9375 C-42.56668457 195.29159912 -43.07086914 194.64569824 -43.59033203 193.98022461 C-47.67156628 188.74063071 -51.70719975 183.46659341 -55.73999023 178.18969727 C-56.342705 177.40127693 -56.94541977 176.6128566 -57.56639862 175.80054474 C-59.04439011 173.86712484 -60.52225369 171.9336073 -62 170 C-62.00808685 171.0655159 -62.01617371 172.1310318 -62.02450562 173.22883606 C-62.10223538 183.30607142 -62.19004081 193.38317621 -62.28752708 203.46024036 C-62.33731812 208.64005201 -62.38364877 213.81984494 -62.421875 218.99975586 C-62.45894611 224.00544396 -62.50536327 229.01096864 -62.55806351 234.01651573 C-62.57649214 235.91928914 -62.59164188 237.82209742 -62.60334396 239.72492409 C-62.72238037 258.4239748 -64.03175376 273.60378653 -77.6484375 287.8125 C-85.10540094 294.74921017 -94.22702937 300.22066863 -104.625 300.25 C-106.08435896 300.18713531 -107.54355382 300.11155758 -109 300 C-108.34 299.01 -107.68 298.02 -107 297 C-106.70785483 293.96240174 -106.70785483 293.96240174 -106.77294922 290.4357605 C-106.77250264 289.43076152 -106.77250264 289.43076152 -106.77204704 288.40545952 C-106.77343841 286.15543314 -106.78913348 283.90573148 -106.8046875 281.65576172 C-106.80852514 280.04432865 -106.81145307 278.4328932 -106.8135376 276.82145691 C-106.8198665 273.3477832 -106.83241451 269.87420636 -106.84967041 266.40056992 C-106.87669532 260.90345737 -106.88850031 255.4063772 -106.89794922 249.90921021 C-106.92205757 237.2396762 -106.96607774 224.57022577 -107.01040649 211.90074921 C-107.0507975 200.30558274 -107.08694649 188.71044517 -107.10683632 177.11522305 C-107.1167786 171.65585109 -107.1364664 166.19662874 -107.16369629 160.73731685 C-107.17867057 157.33132305 -107.18525803 153.92534949 -107.1896286 150.51932716 C-107.19335666 148.94601148 -107.20052646 147.37269937 -107.21149445 145.7994175 C-107.2948302 133.45062875 -106.77587529 123.14319732 -99 113 C-92.31963825 106.30530271 -83.88699155 102.83091627 -74.5 102.5 C-65.64552317 102.82254851 -58.65146132 105.55069066 -52.1875 111.63671875 C-47.10381047 117.12891904 -42.56458831 123.07610414 -38 129 C-37.57460937 129.54962402 -37.14921875 130.09924805 -36.7109375 130.66552734 C-34.69275348 133.27370468 -32.68331004 135.88844831 -30.6796875 138.5078125 C-27.55787533 142.5843651 -24.40396881 146.6358064 -21.25 150.6875 C-20.66371826 151.44111816 -20.07743652 152.19473633 -19.47338867 152.97119141 C-16.37530356 156.95246009 -13.27356325 160.93083623 -10.16796875 164.90625 C-9.5430957 165.70716064 -8.91822266 166.50807129 -8.27441406 167.33325195 C-7.08615785 168.85615927 -5.89677947 170.37819195 -4.70605469 171.89916992 C-4.16239258 172.59631104 -3.61873047 173.29345215 -3.05859375 174.01171875 C-2.58736084 174.61459717 -2.11612793 175.21747559 -1.63061523 175.83862305 C-0.18793544 177.75089199 1.21180195 179.68452862 2.60191345 181.63508606 C3.0512622 182.26527051 3.50061094 182.89545496 3.96357632 183.54473591 C4.30559613 184.02497306 4.64761595 184.50521021 5 185 C5.11678392 161.76498431 5.20496405 138.53001699 5.25906086 115.29476738 C5.28484622 104.50630764 5.32000322 93.71803022 5.37719727 82.9296875 C5.42702191 73.52693375 5.4592886 64.12431204 5.47044247 54.72142994 C5.4769628 49.74227055 5.49229445 44.7634889 5.52865028 39.78445053 C5.56259483 35.09766118 5.57305605 30.41140508 5.56553841 25.72450447 C5.56691364 24.00478403 5.57685547 22.28504571 5.59602737 20.56543159 C5.62094283 18.21532081 5.61491259 15.86721751 5.60127258 13.51705933 C5.60588155 12.20258253 5.61049051 10.88810574 5.61523914 9.53379631 C4.81681782 4.94784246 3.2054146 3.29362438 0 0 Z " fill="#62F555" transform="translate(252,0)"/>
<path d="M0 0 C0.66 0.33 1.32 0.66 2 1 C-1.3 4.3 -4.6 7.6 -8 11 C-8 7.0234755 -6.61988497 5.9109833 -4 3 C-1.75 1.1875 -1.75 1.1875 0 0 Z " fill="#58F061" transform="translate(159,108)"/>
</svg>
