<?xml version="1.0" encoding="UTF-8"?>
<svg version="1.1" xmlns="http://www.w3.org/2000/svg" width="955" height="1024">
<path d="M0 0 C2.4375 1.75 2.4375 1.75 5 4 C6.19770065 4.65349307 7.41639792 5.26927892 8.6484375 5.85546875 C12.92006935 7.93907314 17.05489339 10.21739405 21.1875 12.5625 C21.87263672 12.94857422 22.55777344 13.33464844 23.26367188 13.73242188 C26.87399673 15.7721338 30.45025226 17.85609295 34 20 C35.89439752 21.10662825 37.79031231 22.21066202 39.6875 23.3125 C46.04028931 27.01375791 52.35138466 30.78051589 58.6328125 34.6015625 C62.04955722 36.67200781 65.42532683 38.71266341 69 40.5 C74.34591957 43.17295979 79.37942095 46.40289119 84.48046875 49.51171875 C89.58779214 52.60534389 94.75860109 55.52886933 100.01171875 58.3671875 C110.04985473 63.85207749 119.91196779 69.64934293 129.66015625 75.6328125 C130.53542969 76.16648437 131.41070313 76.70015625 132.3125 77.25 C133.48232422 77.96929687 133.48232422 77.96929687 134.67578125 78.703125 C137.05748944 80.03207814 139.4488253 81.04274507 142 82 C142 82.66 142 83.32 142 84 C142.804375 84.226875 143.60875 84.45375 144.4375 84.6875 C152.25893486 87.56908126 159.2433055 92.33632299 166.35375977 96.63330078 C170.83819932 99.33301947 175.38566824 101.87178656 180 104.34375 C183.83919479 106.46330546 187.60403492 108.69941369 191.375 110.9375 C198.48582388 115.15481741 205.68065649 119.15575349 213 123 C213 123.66 213 124.32 213 125 C213.79921875 125.22558594 214.5984375 125.45117188 215.421875 125.68359375 C219.98443758 127.36217845 224.03494071 129.65923636 228.25 132.0625 C229.8592604 132.97025527 231.4686301 133.87781682 233.078125 134.78515625 C233.78356445 135.18613525 234.48900391 135.58711426 235.21582031 136.00024414 C236.46043428 136.69765714 237.72392827 137.36196414 239 138 C239 138.66 239 139.32 239 140 C239.804375 140.226875 240.60875 140.45375 241.4375 140.6875 C249.25719 143.56843842 256.24117165 148.33384144 263.34936523 152.63110352 C267.87483919 155.35633275 272.46813222 157.9114994 277.125 160.40625 C280.6366188 162.35290825 284.06654178 164.41946786 287.5 166.5 C294.84972558 170.95113744 302.29372698 175.19115242 310 179 C310 179.66 310 180.32 310 181 C310.9075 181.28875 311.815 181.5775 312.75 181.875 C315.32202908 182.76531776 317.61346766 183.71494413 320 185 C320 185.66 320 186.32 320 187 C320.69867187 187.08894531 321.39734375 187.17789063 322.1171875 187.26953125 C325.63941268 188.1620192 328.07321769 189.71921289 331.125 191.6875 C336.03708644 194.80434489 341.01372968 197.70055089 346.140625 200.44921875 C349.9409862 202.51034361 353.68698704 204.66228192 357.43481445 206.81713867 C360.71495878 208.7006573 364.0041579 210.56561803 367.30859375 212.40625 C368.02764893 212.80739014 368.7467041 213.20853027 369.48754883 213.62182617 C370.88058572 214.39782171 372.27489615 215.17153679 373.6706543 215.94262695 C376.9634605 217.77908772 380.00504606 219.71813033 383 222 C384.39865996 222.76313746 385.81546735 223.49414255 387.25 224.1875 C388.30960938 224.70376953 388.30960938 224.70376953 389.390625 225.23046875 C389.92171875 225.48441406 390.4528125 225.73835937 391 226 C391 226.66 391 227.32 391 228 C391.71724086 228.12144253 392.43448172 228.24288506 393.17345715 228.36800766 C398.27804722 229.50935311 402.33235008 231.17976238 406 235 C407.55473081 240.02839639 407.44164943 245.00200632 407.4050293 250.20996094 C407.43005719 251.77102522 407.45922259 253.33202781 407.49220276 254.89294434 C407.56760549 259.12505217 407.57882441 263.3550103 407.57377601 267.58770275 C407.57436796 271.12636546 407.60375999 274.66457077 407.63228065 278.20310044 C407.69810095 286.55660261 407.70922989 294.90899773 407.68823242 303.26269531 C407.66772341 311.86581997 407.74677056 320.46403334 407.87391728 329.06613326 C407.97927841 336.46365742 408.01851069 343.85960366 408.00620776 351.25786424 C407.99976405 355.67168976 408.01875003 360.08163686 408.10306358 364.49474335 C408.57606029 391.27667262 408.57606029 391.27667262 404.32043839 397.42756653 C400.37984841 401.04646718 396.08806572 402.91545151 390.99076271 404.37602997 C388.25871023 405.23234442 386.04725457 406.65321321 383.6875 408.25 C379.19900581 410.96450671 374.53400285 413.24788706 369.828125 415.55859375 C365.05197963 417.99284464 360.62778802 420.85314935 356.25 423.9375 C353.26418639 425.83234325 350.29552561 427.38004882 347.125 428.9375 C341.15750337 431.8695497 335.65641764 435.17002341 330.1875 438.9375 C326.47177275 441.34179411 322.62270974 443.40099571 318.7265625 445.49609375 C316.42762491 446.76413239 314.21017988 448.08566679 312 449.5 C307.14558309 452.59729668 302.0675425 455.27132327 297 458 C290.96757169 461.25988331 290.96757169 461.25988331 285.1875 464.9375 C272.46458924 473.16997167 272.46458924 473.16997167 266.375 472.75 C261.77745765 470.36608915 257.3811898 467.75877019 253 465 C251.33585057 463.99581652 249.66920462 462.99575786 248 462 C245.4488282 460.47170369 242.90049243 458.93950058 240.359375 457.39453125 C236.94554933 455.32477168 233.57212045 453.28606022 230 451.5 C226.62772624 449.81386312 223.46003455 447.8930407 220.23828125 445.9375 C216.01830604 443.41264149 211.75963099 440.95719361 207.5 438.5 C202.37014541 435.5408127 197.25035698 432.57305431 192.1875 429.5 C189.81155004 428.06052601 187.48848721 426.74424361 185 425.5 C179.57980757 422.78990379 174.47026167 419.51657574 169.30859375 416.34765625 C168.01115234 415.55681641 168.01115234 415.55681641 166.6875 414.75 C165.90761719 414.27046875 165.12773438 413.7909375 164.32421875 413.296875 C161.94251056 411.96792186 159.5511747 410.95725493 157 410 C157 409.34 157 408.68 157 408 C156.195625 407.773125 155.39125 407.54625 154.5625 407.3125 C146.69807696 404.41508099 139.64172331 399.62376173 132.49243164 395.29858398 C129.45927762 393.46455586 126.41681335 391.65525587 123.3359375 389.90234375 C120.61244568 388.34925181 117.92566656 386.75807924 115.25 385.125 C109.91978314 381.91722243 104.48006839 378.94246416 99 376 C97.80457841 375.3556711 96.60927067 374.71113095 95.4140625 374.06640625 C92.27739028 372.37509234 89.13908952 370.68682394 86 369 C86 368.34 86 367.68 86 367 C85.16597656 366.7628125 84.33195313 366.525625 83.47265625 366.28125 C79.43672154 364.79217623 76.06661236 362.77866032 72.4375 360.5 C68.38211393 357.96892155 64.5347768 355.60153346 60 354 C60 353.34 60 352.68 60 352 C59.195625 351.773125 58.39125 351.54625 57.5625 351.3125 C49.74106514 348.43091874 42.7566945 343.66367701 35.64624023 339.36669922 C31.17182205 336.67301359 26.63442337 334.13984144 22.03125 331.671875 C13.56478394 327.00222619 5.2893683 321.97554654 -3 317 C-2.9862012 337.01015382 -2.94400907 357.02005498 -2.86790943 377.03007126 C-2.83323963 386.32085553 -2.80790131 395.61149112 -2.80444336 404.90234375 C-2.80140622 412.99920844 -2.78094965 421.09580849 -2.73947543 429.19257092 C-2.71812077 433.48079076 -2.70555733 437.76863413 -2.71384621 442.05690765 C-2.72137097 446.09215537 -2.70562888 450.12663932 -2.67193985 454.16174698 C-2.66368738 455.64359664 -2.66397928 457.12552198 -2.67340279 458.60736465 C-2.68498802 460.62909078 -2.66298653 462.65092657 -2.63923645 464.67254639 C-2.63647107 465.80450817 -2.63370569 466.93646996 -2.63085651 468.10273361 C-1.79589586 471.93736696 -0.23721328 472.91456272 3 475 C4.98077953 476.03755118 6.98529902 477.02995879 9 478 C12.67934724 479.97688684 16.3399585 481.98762843 20 484 C20 484.66 20 485.32 20 486 C21.09248047 486.16435547 21.09248047 486.16435547 22.20703125 486.33203125 C25.1727294 487.04131011 27.1161626 488.06819496 29.6875 489.6875 C30.56535156 490.23148437 31.44320312 490.77546875 32.34765625 491.3359375 C33.22292969 491.88507813 34.09820313 492.43421875 35 493 C41.54058338 497.00624566 48.18464873 500.79530036 54.8828125 504.52905273 C60.40125838 507.62274669 65.78343611 510.89707786 71.1328125 514.2734375 C74.02426425 516.01461144 76.9775229 517.50078722 80 519 C81.67739862 519.98189187 83.34467377 520.98133771 85 522 C88.59738729 524.18316777 92.21793067 526.15098833 96 528 C99.42404111 529.85697424 102.71609869 531.80670549 105.9375 534 C109.49269842 536.32176223 113.17313365 538.17398255 117 540 C117 540.66 117 541.32 117 542 C117.71671875 542.103125 118.4334375 542.20625 119.171875 542.3125 C122.32097435 543.07802691 124.50549883 544.29084957 127.25 546 C128.12140625 546.53625 128.9928125 547.0725 129.890625 547.625 C132 549 132 549 133 550 C133.11436162 552.05124343 133.15749682 554.10646571 133.17408752 556.16082764 C133.18058648 556.81152261 133.18708543 557.46221758 133.19378132 558.13263059 C133.21427925 560.32896784 133.22742598 562.52528642 133.24047852 564.72167969 C133.25328372 566.2900519 133.26641905 567.85842145 133.27986145 569.42678833 C133.39583825 583.75326387 133.45239859 598.08044147 133.49662876 612.40729904 C133.52988599 623.00315104 133.58946199 633.59814925 133.68413979 644.19363475 C133.74841393 651.63739688 133.78215692 659.08092599 133.79337829 666.52495503 C133.80094878 670.97393693 133.82221086 675.42188855 133.87640572 679.87056732 C133.92680216 684.05699351 133.93946176 688.2418426 133.92315483 692.42852402 C133.92375919 693.96487405 133.93806913 695.50128915 133.96710205 697.03736496 C134.17509511 708.64928284 134.17509511 708.64928284 131.27053642 711.98793793 C129.20587368 713.30919437 127.30452308 714.18369833 125 715 C123.40091797 715.82177734 123.40091797 715.82177734 121.76953125 716.66015625 C119.79079059 717.59855506 117.81162035 718.53604857 115.83203125 719.47265625 C112.95036231 720.91680174 112.95036231 720.91680174 110.51171875 722.99609375 C107.79482465 725.16369355 105.1315496 726.4997872 102 728 C99.39781728 729.40403024 96.8242067 730.85792853 94.25 732.3125 C93.54407715 732.71057861 92.8381543 733.10865723 92.11083984 733.51879883 C86.68478224 736.58934412 81.32351601 739.75484298 76 743 C65.12459128 749.56761695 54.17711763 755.95831479 43 762 C36.96780418 765.26028876 36.96780418 765.26028876 31.1875 768.9375 C28.22556599 770.85404554 25.28854228 772.38542419 22.125 773.9375 C17.96474047 775.98176546 13.96654488 778.06770312 10.14022636 780.68797874 C8 782 8 782 5.47722054 783.02279091 C2.44545427 784.38154481 0.35370039 785.63924712 -2 788 C-3.51244726 793.0257243 -3.32507565 797.993433 -3.22705078 803.18505859 C-3.23409681 804.74259931 -3.24553721 806.30012541 -3.2610321 807.85760498 C-3.29059187 812.07700332 -3.25878539 816.29396021 -3.21586847 820.51316023 C-3.18145095 824.9254889 -3.20358621 829.33752707 -3.21969604 833.74990845 C-3.24160776 842.10116564 -3.21273665 850.45144266 -3.165573 858.80256426 C-3.11434563 868.31165627 -3.11980118 877.82045223 -3.12999368 887.32964587 C-3.14968746 906.88675773 -3.09827762 926.44314851 -3 946 C-4.07523926 946.60110596 -5.15047852 947.20221191 -6.25830078 947.8215332 C-7.69567519 948.62704956 -9.13301034 949.43263598 -10.5703125 950.23828125 C-11.62859253 950.82953796 -11.62859253 950.82953796 -12.70825195 951.43273926 C-19.25605411 955.10621836 -25.63002108 959.0261456 -32 963 C-38.2440251 966.88496314 -44.57028666 970.31704461 -51.171875 973.55859375 C-55.94802037 975.99284464 -60.37221198 978.85314935 -64.75 981.9375 C-67.73581361 983.83234325 -70.70447439 985.38004882 -73.875 986.9375 C-79.82639537 989.86163856 -85.3335922 993.12139451 -90.75 996.9375 C-93.73581361 998.83234325 -96.70447439 1000.38004882 -99.875 1001.9375 C-103.96227566 1003.94861973 -107.85085853 1006.04320258 -111.671875 1008.515625 C-114.93141778 1010.59385697 -118.24678021 1012.57549278 -121.5625 1014.5625 C-122.18809814 1014.93866455 -122.81369629 1015.3148291 -123.45825195 1015.70239258 C-126.58613255 1017.57764145 -129.72765408 1019.41982029 -132.90234375 1021.21484375 C-135.78287292 1022.6963444 -135.78287292 1022.6963444 -137 1024 C-140.70936019 1024.4215182 -142.43192363 1024.41185536 -145.5 1022.1875 C-146.325 1021.465625 -147.15 1020.74375 -148 1020 C-149.9951399 1018.99033829 -151.99635377 1017.99267405 -154 1017 C-157.10624953 1015.26858285 -160.1775303 1013.47803016 -163.25 1011.6875 C-164.09393311 1011.19765625 -164.93786621 1010.7078125 -165.80737305 1010.203125 C-170.16377451 1007.66983534 -174.50276708 1005.11215873 -178.8125 1002.5 C-181.18844996 1001.06052601 -183.51151279 999.74424361 -186 998.5 C-191.34591957 995.82704021 -196.37942095 992.59710881 -201.48046875 989.48828125 C-207.55880524 985.80649079 -213.74601378 982.37324963 -220 979 C-226.68599459 975.37686327 -233.22923809 971.52350707 -239.77539062 967.65551758 C-243.36788886 965.53602275 -246.96302421 963.43557424 -250.625 961.4375 C-255.33528523 958.86156277 -259.91797549 956.07566699 -264.51025391 953.29663086 C-265.11788574 952.92932861 -265.72551758 952.56202637 -266.3515625 952.18359375 C-267.15327881 951.69717407 -267.15327881 951.69717407 -267.97119141 951.20092773 C-270.96002777 949.43172363 -273.98440445 947.72319746 -277 946 C-277.33 790.57 -277.66 635.14 -278 475 C-288.27823568 480.57341238 -288.27823568 480.57341238 -298 487 C-300.97902584 488.53663644 -303.99864568 489.96648815 -307.02734375 491.40234375 C-310.01500835 492.88664288 -310.01500835 492.88664288 -312.37890625 494.94140625 C-315.10149349 497.07971247 -317.75176335 498.44289291 -320.85449219 499.93310547 C-324.55994844 501.77571401 -328.07798528 503.93492912 -331.625 506.0625 C-336.3475601 508.89015387 -341.05994902 511.56281089 -346 514 C-347.3303125 514.8971875 -347.3303125 514.8971875 -348.6875 515.8125 C-352.39288367 518.25945148 -356.22485107 520.323531 -360.1328125 522.42578125 C-363.68413791 524.3756234 -367.13924034 526.46389201 -370.6015625 528.56640625 C-372.87736789 529.92670035 -375.17614521 531.22391833 -377.5 532.5 C-380.56490954 534.18436768 -383.57383453 535.93384937 -386.5625 537.75 C-391.82308409 540.93622128 -397.18184932 543.93767652 -402.55493164 546.92871094 C-405.43966865 548.53856783 -408.24970941 550.16647294 -411 552 C-415.86450288 551.76629612 -419.77343495 549.08327398 -423.875 546.6875 C-424.55691406 546.29626953 -425.23882812 545.90503906 -425.94140625 545.50195312 C-427.30352695 544.71970667 -428.66389872 543.93440654 -430.02246094 543.14599609 C-431.9083803 542.05309418 -433.80063016 540.97215107 -435.6953125 539.89453125 C-438.48520772 538.29512324 -441.24904784 536.66504999 -444 535 C-447.32300419 532.99921219 -450.66080582 531.03454893 -454.03515625 529.12109375 C-460.40036396 525.48925555 -466.72222342 521.78081875 -473 518 C-480.36109714 513.57156396 -487.74346368 509.19026877 -495.3125 505.125 C-500.50805306 502.31985379 -505.56331773 499.30766572 -510.6105957 496.24658203 C-513.59995739 494.43418833 -516.59787712 492.64640498 -519.63671875 490.91796875 C-522.47455884 489.29964182 -525.27363896 487.63802502 -528.0625 485.9375 C-530.68342211 484.35706426 -533.26102934 482.86948533 -536 481.5 C-537.485 480.7575 -537.485 480.7575 -539 480 C-539.80409522 479.695915 -540.60819044 479.39183001 -541.43665218 479.07853031 C-544.50090483 477.68371572 -546.61977638 476.39746085 -549 474 C-550.52351056 468.94259564 -550.33860021 463.93635877 -550.24633789 458.71069336 C-550.25498234 457.14155764 -550.26792607 455.57244061 -550.28483582 454.00337219 C-550.31756565 449.75055189 -550.28763523 445.5002828 -550.24446034 441.24763942 C-550.20793176 436.79501189 -550.22265994 432.34251622 -550.23008728 427.88978577 C-550.23455282 420.41365157 -550.19895498 412.9385243 -550.13891602 405.46264648 C-550.06994539 396.82118867 -550.06121021 388.18128624 -550.0854283 379.53962225 C-550.10760105 371.22283399 -550.09010988 362.90659943 -550.05352592 354.58987617 C-550.03848442 351.05200359 -550.03680281 347.5144971 -550.04576302 343.97660637 C-550.05430712 339.81041489 -550.02795117 335.64585456 -549.97468758 331.48000908 C-549.96064594 329.95185066 -549.95845869 328.42353021 -549.96902084 326.89534378 C-550.03761831 315.36378613 -550.03761831 315.36378613 -547.5036602 312.03329659 C-545.7036385 310.71502834 -544.05369706 309.85491697 -542 309 C-540.80661535 308.30162657 -539.61899716 307.59330134 -538.4375 306.875 C-536.37605447 305.75057516 -534.29705663 304.6563388 -532.1875 303.625 C-527.65169796 301.31263033 -523.34801382 298.64493423 -519 296 C-509.79957671 290.44447284 -500.58881689 284.91037694 -491.125 279.8125 C-488.32123952 278.30094207 -485.69862023 276.79480527 -483.0625 275 C-480.25620282 273.16731613 -477.51522507 271.76250942 -474.5 270.3125 C-469.01724085 267.63264765 -463.96351805 264.53959332 -458.89648438 261.15942383 C-455.3694277 258.81785009 -451.79972031 256.85889282 -448 255 C-446.32260138 254.01810813 -444.65532623 253.01866229 -443 252 C-439.40131959 249.81508689 -435.76582718 247.88291359 -432 246 C-428.64002773 244.04393223 -425.32075721 242.02175513 -422 240 C-416.74321259 236.79954414 -411.53302136 233.70503267 -406 231 C-402.56439307 229.13675322 -399.25309878 227.16873252 -396 225 C-392.75128717 222.83419144 -389.39754029 220.91753069 -386 219 C-384.74823975 218.29302979 -384.74823975 218.29302979 -383.47119141 217.57177734 C-381.58607118 216.50783826 -379.70072637 215.44429703 -377.81518555 214.38110352 C-362.90578314 206.04312825 -362.90578314 206.04312825 -348.2421875 197.28515625 C-347.35789062 196.73730469 -346.47359375 196.18945312 -345.5625 195.625 C-344.41974609 194.90183594 -344.41974609 194.90183594 -343.25390625 194.1640625 C-340.83029159 192.91235163 -338.68596568 192.40739515 -336 192 C-336 191.34 -336 190.68 -336 190 C-334.71086513 189.32845067 -333.41859796 188.66291141 -332.125 188 C-331.40570313 187.62875 -330.68640625 187.2575 -329.9453125 186.875 C-328 186 -328 186 -326 186 C-326 185.34 -326 184.68 -326 184 C-325.32195312 183.63648438 -324.64390625 183.27296875 -323.9453125 182.8984375 C-319.25193792 180.36323517 -314.60759092 177.79356808 -310.0625 175 C-305.43863329 172.17840722 -300.65694814 169.80582062 -295.76171875 167.4921875 C-292.87106707 165.9303361 -290.54058643 164.07258367 -288 162 C-286.11328125 160.9453125 -286.11328125 160.9453125 -284.3125 160.125 C-281.15798443 158.61272287 -278.17494467 156.94591866 -275.1875 155.125 C-271.81487969 153.07076763 -268.41742837 151.11650704 -264.9375 149.25 C-260.05244404 146.61692019 -255.27370262 143.82773467 -250.5 141 C-231.89506173 130 -231.89506173 130 -229 130 C-229 129.34 -229 128.68 -229 128 C-227.38544922 127.1646875 -227.38544922 127.1646875 -225.73828125 126.3125 C-217.62131124 122.08222727 -209.71954704 117.70115086 -201.96875 112.828125 C-198.368364 110.6110452 -194.67226545 108.62277175 -190.9453125 106.62890625 C-187.40842118 104.6728271 -183.95604233 102.59461053 -180.5 100.5 C-163.22467227 90.0569452 -163.22467227 90.0569452 -158 89 C-158 88.34 -158 87.68 -158 87 C-157.45214844 86.74347656 -156.90429688 86.48695312 -156.33984375 86.22265625 C-150.46854961 83.38725079 -144.87959009 80.1851104 -139.31542969 76.79785156 C-132.81038504 72.85100674 -126.20423179 69.0885601 -119.5847168 65.33764648 C-115.26567985 62.88544906 -110.97526194 60.3980264 -106.72265625 57.83203125 C-103.27648601 55.75271925 -99.80676105 53.76116116 -96.25 51.875 C-93.40491348 50.34333557 -90.73624484 48.82042202 -88.0625 47 C-85.14747759 45.09631189 -82.24767087 43.59459695 -79.125 42.0625 C-73.17360463 39.13836144 -67.6664078 35.87860549 -62.25 32.0625 C-59.26418639 30.16765675 -56.29552561 28.61995118 -53.125 27.0625 C-49.03772434 25.05138027 -45.14914147 22.95679742 -41.328125 20.484375 C-38.06858222 18.40614303 -34.75321979 16.42450722 -31.4375 14.4375 C-30.81190186 14.06133545 -30.18630371 13.6851709 -29.54174805 13.29760742 C-26.49600478 11.4716021 -23.43872932 9.67407278 -20.34765625 7.92578125 C-17.49434644 6.28437899 -14.75651531 4.54536195 -12 2.75 C-7.81107544 0.24554435 -4.96259945 -0.97305872 0 0 Z " fill="#ED8E24" transform="translate(549,0)"/>
<path d="M0 0 C2.4375 1.75 2.4375 1.75 5 4 C6.19770065 4.65349307 7.41639792 5.26927892 8.6484375 5.85546875 C12.92006935 7.93907314 17.05489339 10.21739405 21.1875 12.5625 C21.87263672 12.94857422 22.55777344 13.33464844 23.26367188 13.73242188 C26.87399673 15.7721338 30.45025226 17.85609295 34 20 C35.89439752 21.10662825 37.79031231 22.21066202 39.6875 23.3125 C46.04028931 27.01375791 52.35138466 30.78051589 58.6328125 34.6015625 C62.04955722 36.67200781 65.42532683 38.71266341 69 40.5 C74.34591957 43.17295979 79.37942095 46.40289119 84.48046875 49.51171875 C89.58779214 52.60534389 94.75860109 55.52886933 100.01171875 58.3671875 C110.04985473 63.85207749 119.91196779 69.64934293 129.66015625 75.6328125 C130.53542969 76.16648437 131.41070313 76.70015625 132.3125 77.25 C133.48232422 77.96929687 133.48232422 77.96929687 134.67578125 78.703125 C137.05748944 80.03207814 139.4488253 81.04274507 142 82 C142 82.66 142 83.32 142 84 C142.804375 84.226875 143.60875 84.45375 144.4375 84.6875 C152.25893486 87.56908126 159.2433055 92.33632299 166.35375977 96.63330078 C170.83819932 99.33301947 175.38566824 101.87178656 180 104.34375 C183.83919479 106.46330546 187.60403492 108.69941369 191.375 110.9375 C198.48582388 115.15481741 205.68065649 119.15575349 213 123 C213 123.66 213 124.32 213 125 C213.79921875 125.22558594 214.5984375 125.45117188 215.421875 125.68359375 C219.98443758 127.36217845 224.03494071 129.65923636 228.25 132.0625 C229.8592604 132.97025527 231.4686301 133.87781682 233.078125 134.78515625 C233.78356445 135.18613525 234.48900391 135.58711426 235.21582031 136.00024414 C236.46043428 136.69765714 237.72392827 137.36196414 239 138 C239 138.66 239 139.32 239 140 C239.804375 140.226875 240.60875 140.45375 241.4375 140.6875 C249.25719 143.56843842 256.24117165 148.33384144 263.34936523 152.63110352 C267.87483919 155.35633275 272.46813222 157.9114994 277.125 160.40625 C280.6366188 162.35290825 284.06654178 164.41946786 287.5 166.5 C294.84972558 170.95113744 302.29372698 175.19115242 310 179 C310 179.66 310 180.32 310 181 C310.9075 181.28875 311.815 181.5775 312.75 181.875 C315.32202908 182.76531776 317.61346766 183.71494413 320 185 C320 185.66 320 186.32 320 187 C320.69867187 187.08894531 321.39734375 187.17789063 322.1171875 187.26953125 C325.63941268 188.1620192 328.07321769 189.71921289 331.125 191.6875 C336.03708644 194.80434489 341.01372968 197.70055089 346.140625 200.44921875 C349.9409862 202.51034361 353.68698704 204.66228192 357.43481445 206.81713867 C360.71495878 208.7006573 364.0041579 210.56561803 367.30859375 212.40625 C368.02764893 212.80739014 368.7467041 213.20853027 369.48754883 213.62182617 C370.88058572 214.39782171 372.27489615 215.17153679 373.6706543 215.94262695 C376.9634605 217.77908772 380.00504606 219.71813033 383 222 C384.39865996 222.76313746 385.81546735 223.49414255 387.25 224.1875 C388.30960938 224.70376953 388.30960938 224.70376953 389.390625 225.23046875 C389.92171875 225.48441406 390.4528125 225.73835937 391 226 C391 226.66 391 227.32 391 228 C392.07314453 228.15275391 392.07314453 228.15275391 393.16796875 228.30859375 C396.34541039 229.08432778 398.54761835 230.32984083 401.3125 232.0625 C402.19550781 232.61035156 403.07851563 233.15820312 403.98828125 233.72265625 C404.65214844 234.14417969 405.31601562 234.56570312 406 235 C402.58506889 238.89020503 398.74972533 240.98237139 394.25 243.375 C386.85801337 247.3911427 379.56591912 251.55131463 372.3125 255.8125 C364.2685397 260.53033891 356.19070623 265.17881613 348.0625 269.75 C340.89370079 273.78342504 333.76314149 277.86849658 326.68603516 282.06054688 C319.19870157 286.48992174 311.66153839 290.83276497 304.11108398 295.15356445 C298.42938483 298.41166834 292.79011794 301.71977531 287.20703125 305.14453125 C285.57906616 306.13114746 285.57906616 306.13114746 283.91821289 307.13769531 C281.84856535 308.39508155 279.78858586 309.66855975 277.73999023 310.95996094 C270.87758699 315.10011308 270.87758699 315.10011308 266.78125 314.6328125 C265.8634375 314.09398437 264.945625 313.55515625 264 313 C262.88109375 312.38769531 261.7621875 311.77539062 260.609375 311.14453125 C259.31981015 310.37235196 258.03357186 309.59460079 256.75 308.8125 C255.23381085 307.90501595 253.71683112 306.99885194 252.19921875 306.09375 C251.37083496 305.59875 250.54245117 305.10375 249.68896484 304.59375 C244.67332135 301.6209771 239.61581773 298.72060528 234.5625 295.8125 C232.90395996 294.85694214 232.90395996 294.85694214 231.21191406 293.88208008 C228.93975918 292.57299343 226.66745991 291.26415738 224.39501953 289.95556641 C218.9283002 286.80667946 213.46425113 283.65316736 208 280.5 C205.83334689 279.2499765 203.66668021 277.99997653 201.5 276.75 C197.16666667 274.25 192.83333333 271.75 188.5 269.25 C187.42733887 268.63116943 186.35467773 268.01233887 185.24951172 267.37475586 C183.08442929 266.12564482 180.91939018 264.87645871 178.75439453 263.62719727 C173.31384294 260.48797691 167.87252784 257.35009437 162.4296875 254.21484375 C151.97793801 248.19252671 141.53700452 242.15330663 131.125 236.0625 C122.44737759 230.98724877 113.73394432 225.97741233 105 221 C95.27884383 215.4599827 85.59105342 209.86625191 75.93310547 204.21655273 C68.67788274 199.97382727 61.40646681 195.76001946 54.125 191.5625 C53.05113037 190.94342773 51.97726074 190.32435547 50.87084961 189.68652344 C46.44649504 187.13677204 42.02147413 184.58817919 37.59619141 182.04003906 C35.32502236 180.732131 33.05410551 179.4237849 30.78344727 178.11499023 C28.57794139 176.84447079 26.37142079 175.57571094 24.16381836 174.30883789 C19.32846105 171.52821968 14.51570113 168.72510418 9.765625 165.80078125 C8.9826001 165.32294189 8.1995752 164.84510254 7.39282227 164.3527832 C5.97401274 163.48246066 4.56232816 162.60035674 3.15991211 161.70385742 C0.49816219 160.07659433 -1.40745436 158.99009422 -4.5703125 159.04296875 C-7.58421548 160.23011703 -10.26620176 161.6714161 -13.0625 163.3125 C-13.65393799 163.65716309 -14.24537598 164.00182617 -14.85473633 164.35693359 C-21.21089324 168.07891274 -27.50697068 171.90422691 -33.81347656 175.70947266 C-38.91120531 178.77688229 -44.04808707 181.71632891 -49.30078125 184.51171875 C-52.75688261 186.41732601 -56.12502556 188.45504408 -59.5 190.5 C-64.6809145 193.63731716 -69.90695604 196.63408058 -75.2421875 199.50390625 C-85.70568276 205.18027832 -95.93325065 211.29441853 -106.20776367 217.30273438 C-114.1113145 221.91663348 -122.04855151 226.46942508 -130 231 C-138.69402905 235.95376458 -147.36502686 240.9436922 -156 246 C-164.63497557 251.05630923 -173.30606319 256.04607122 -182 261 C-191.72124506 266.53985933 -201.40894868 272.13374932 -211.06689453 277.78344727 C-221.58347855 283.93335892 -232.13914401 290.01491822 -242.69580078 296.09570312 C-246.02614252 298.01506662 -249.35509148 299.93682353 -252.68359375 301.859375 C-262.65143246 307.61613119 -272.62386381 313.36375735 -282.625 319.0625 C-289.96482896 323.24558642 -297.27103666 327.48321003 -304.5625 331.75 C-313.3439087 336.88854413 -322.16014111 341.96297916 -331 347 C-340.71383306 352.53561917 -350.39387475 358.12569221 -360.04492188 363.77026367 C-369.67910648 369.40330915 -379.33466448 374.99848733 -389.015625 380.55078125 C-392.69280168 382.66091316 -396.34982571 384.79780432 -399.984375 386.98046875 C-400.71720703 387.41319092 -401.45003906 387.84591309 -402.20507812 388.29174805 C-403.51383213 389.06503166 -404.81545971 389.850588 -406.10742188 390.65161133 C-408.81937928 392.23499735 -410.7391809 392.99894548 -413.8984375 393.01171875 C-418.09125795 391.6440355 -421.61344099 389.59031972 -425.375 387.3125 C-427.07285465 386.30718693 -428.77077445 385.30198387 -430.46875 384.296875 C-431.3659375 383.76126953 -432.263125 383.22566406 -433.1875 382.67382812 C-438.06455785 379.77130133 -442.97134342 376.91977668 -447.875 374.0625 C-448.88844482 373.47073975 -449.90188965 372.87897949 -450.94604492 372.26928711 C-460.92604465 366.44596482 -470.95803571 360.71558442 -481 355 C-491.71714208 348.89938272 -502.41948046 342.78080987 -513.0378418 336.50952148 C-524.9233523 329.49495926 -536.96436445 322.75246046 -549 316 C-547.11902692 310.35708076 -540.08401893 307.75723681 -535 305 C-534.071875 304.54625 -533.14375 304.0925 -532.1875 303.625 C-527.65169796 301.31263033 -523.34801382 298.64493423 -519 296 C-509.79957671 290.44447284 -500.58881689 284.91037694 -491.125 279.8125 C-488.32123952 278.30094207 -485.69862023 276.79480527 -483.0625 275 C-480.25620282 273.16731613 -477.51522507 271.76250942 -474.5 270.3125 C-469.01724085 267.63264765 -463.96351805 264.53959332 -458.89648438 261.15942383 C-455.3694277 258.81785009 -451.79972031 256.85889282 -448 255 C-446.32260138 254.01810813 -444.65532623 253.01866229 -443 252 C-439.40131959 249.81508689 -435.76582718 247.88291359 -432 246 C-428.64002773 244.04393223 -425.32075721 242.02175513 -422 240 C-416.74321259 236.79954414 -411.53302136 233.70503267 -406 231 C-402.56439307 229.13675322 -399.25309878 227.16873252 -396 225 C-392.75128717 222.83419144 -389.39754029 220.91753069 -386 219 C-384.74823975 218.29302979 -384.74823975 218.29302979 -383.47119141 217.57177734 C-381.58607118 216.50783826 -379.70072637 215.44429703 -377.81518555 214.38110352 C-362.90578314 206.04312825 -362.90578314 206.04312825 -348.2421875 197.28515625 C-347.35789062 196.73730469 -346.47359375 196.18945312 -345.5625 195.625 C-344.41974609 194.90183594 -344.41974609 194.90183594 -343.25390625 194.1640625 C-340.83029159 192.91235163 -338.68596568 192.40739515 -336 192 C-336 191.34 -336 190.68 -336 190 C-334.71086513 189.32845067 -333.41859796 188.66291141 -332.125 188 C-331.40570313 187.62875 -330.68640625 187.2575 -329.9453125 186.875 C-328 186 -328 186 -326 186 C-326 185.34 -326 184.68 -326 184 C-325.32195312 183.63648438 -324.64390625 183.27296875 -323.9453125 182.8984375 C-319.25193792 180.36323517 -314.60759092 177.79356808 -310.0625 175 C-305.43863329 172.17840722 -300.65694814 169.80582062 -295.76171875 167.4921875 C-292.87106707 165.9303361 -290.54058643 164.07258367 -288 162 C-286.11328125 160.9453125 -286.11328125 160.9453125 -284.3125 160.125 C-281.15798443 158.61272287 -278.17494467 156.94591866 -275.1875 155.125 C-271.81487969 153.07076763 -268.41742837 151.11650704 -264.9375 149.25 C-260.05244404 146.61692019 -255.27370262 143.82773467 -250.5 141 C-231.89506173 130 -231.89506173 130 -229 130 C-229 129.34 -229 128.68 -229 128 C-227.38544922 127.1646875 -227.38544922 127.1646875 -225.73828125 126.3125 C-217.62131124 122.08222727 -209.71954704 117.70115086 -201.96875 112.828125 C-198.368364 110.6110452 -194.67226545 108.62277175 -190.9453125 106.62890625 C-187.40842118 104.6728271 -183.95604233 102.59461053 -180.5 100.5 C-163.22467227 90.0569452 -163.22467227 90.0569452 -158 89 C-158 88.34 -158 87.68 -158 87 C-157.45214844 86.74347656 -156.90429688 86.48695312 -156.33984375 86.22265625 C-150.46854961 83.38725079 -144.87959009 80.1851104 -139.31542969 76.79785156 C-132.81038504 72.85100674 -126.20423179 69.0885601 -119.5847168 65.33764648 C-115.26567985 62.88544906 -110.97526194 60.3980264 -106.72265625 57.83203125 C-103.27648601 55.75271925 -99.80676105 53.76116116 -96.25 51.875 C-93.40491348 50.34333557 -90.73624484 48.82042202 -88.0625 47 C-85.14747759 45.09631189 -82.24767087 43.59459695 -79.125 42.0625 C-73.17360463 39.13836144 -67.6664078 35.87860549 -62.25 32.0625 C-59.26418639 30.16765675 -56.29552561 28.61995118 -53.125 27.0625 C-49.03772434 25.05138027 -45.14914147 22.95679742 -41.328125 20.484375 C-38.06858222 18.40614303 -34.75321979 16.42450722 -31.4375 14.4375 C-30.81190186 14.06133545 -30.18630371 13.6851709 -29.54174805 13.29760742 C-26.49600478 11.4716021 -23.43872932 9.67407278 -20.34765625 7.92578125 C-17.49434644 6.28437899 -14.75651531 4.54536195 -12 2.75 C-7.81107544 0.24554435 -4.96259945 -0.97305872 0 0 Z " fill="#F7BE3B" transform="translate(549,0)"/>
<path d="M0 0 C0.66 0 1.32 0 2 0 C2 52.14 2 104.28 2 158 C3.65 158.66 5.3 159.32 7 160 C24.04181202 168.70102272 40.47533585 178.84213272 56.98828125 188.5 C66.40588406 194.00755282 75.82391882 199.50340422 85.35205078 204.81787109 C90.66237123 207.78786432 95.89994918 210.87306321 101.13208008 213.97827148 C108.3746087 218.25850946 115.71390753 222.36583354 123.07055664 226.44628906 C124.46262329 227.22504395 124.46262329 227.22504395 125.8828125 228.01953125 C126.70152832 228.47432861 127.52024414 228.92912598 128.36376953 229.39770508 C129.23372559 229.9264624 130.10368164 230.45521973 131 231 C132.19298203 231.55098358 133.38596405 232.10196716 134.61509705 232.66964722 C137.2956595 234.62614174 137.92676931 235.66032708 138.63539124 238.94719601 C138.86563471 242.93697464 138.86614298 246.89531317 138.79467773 250.88793945 C138.7927025 252.42560231 138.79381295 253.96327177 138.79777527 255.50093079 C138.79978304 259.67050275 138.75864259 263.83866394 138.70975757 268.00790811 C138.66598542 272.36670536 138.66188547 276.72553531 138.65357971 281.08451843 C138.63182648 289.33658411 138.5743886 297.58800031 138.50413328 305.83978003 C138.42587966 315.2350304 138.38740083 324.63031187 138.35226524 334.02580702 C138.27910542 353.35090619 138.1559884 372.67540087 138 392 C133.65440989 391.05409004 130.08929652 388.98587789 126.25 386.8125 C125.46705566 386.37325195 124.68411133 385.93400391 123.87744141 385.48144531 C112.16407183 378.87857719 100.58440566 372.04064047 88.98974609 365.23242188 C76.68682281 358.01083385 64.3277019 350.91258692 51.86572266 343.96875 C43.16049792 339.11078327 34.57731425 334.08285289 26 329 C18.08 324.38 10.16 319.76 2 315 C2 418.95 2 522.9 2 630 C-3.25285878 628.6867853 -7.32529074 626.14184722 -11.75 623.125 C-16.34262856 620.12212748 -21.171085 617.59966693 -26 615 C-28.27852418 613.74365224 -30.5518169 612.47831615 -32.82421875 611.2109375 C-34.28269946 610.39921574 -35.7436769 609.59196489 -37.20703125 608.7890625 C-43.67497525 605.23225967 -49.99171042 601.44457866 -56.29296875 597.6015625 C-62.83555432 593.63436656 -69.49054597 589.88218409 -76.16796875 586.1484375 C-82.62088596 582.5362594 -89.00949553 578.82588464 -95.375 575.0625 C-101.957587 571.17587484 -101.957587 571.17587484 -108.625 567.4375 C-113.33528523 564.86156277 -117.91797549 562.07566699 -122.51025391 559.29663086 C-123.11788574 558.92932861 -123.72551758 558.56202637 -124.3515625 558.18359375 C-124.88604004 557.85931396 -125.42051758 557.53503418 -125.97119141 557.20092773 C-127.84672622 556.09072848 -129.73388197 555.00515044 -131.62680054 553.92494202 C-132.73995636 553.28971115 -133.85311218 552.65448029 -135 552 C-135.154039 506.99039993 -135.29732796 461.98077015 -135.38108826 416.97097778 C-135.38233077 416.30500027 -135.38357328 415.63902275 -135.38485345 414.9528641 C-135.41178855 400.47997204 -135.43672034 386.00707718 -135.45958797 371.53417813 C-135.47081416 364.4368473 -135.48248312 357.33951723 -135.49438477 350.2421875 C-135.4955616 349.53591146 -135.49673843 348.82963542 -135.49795092 348.10195708 C-135.53631481 325.20243302 -135.60392513 302.3031086 -135.68667499 279.40370553 C-135.77154492 255.87492183 -135.82696348 232.34624864 -135.84523491 208.81731446 C-135.85707408 193.65240477 -135.89490388 178.48808098 -135.9712482 163.32335527 C-136.01871848 153.38973845 -136.03322444 143.45641911 -136.0215124 133.52269702 C-136.0157315 127.78600543 -136.02476684 122.05031716 -136.07284927 116.31380272 C-136.11652255 111.06515426 -136.11894339 105.8181873 -136.08809005 100.56946279 C-136.08427488 98.66758522 -136.09580164 96.76560439 -136.12394864 94.86393128 C-136.32262147 80.61641268 -136.32262147 80.61641268 -133.02074325 76.58109498 C-130.71384762 75.01040932 -128.60743992 73.96877634 -126 73 C-125.0917749 72.45472656 -124.1835498 71.90945313 -123.24780273 71.34765625 C-122.10226929 70.71150391 -122.10226929 70.71150391 -120.93359375 70.0625 C-120.04905518 69.5677417 -119.1645166 69.0729834 -118.25317383 68.56323242 C-116.85941528 67.78943237 -116.85941528 67.78943237 -115.4375 67 C-107.35061753 62.47058863 -99.30832514 57.87578837 -91.3125 53.1875 C-82.57396651 48.06750629 -73.79985328 43.01353234 -65 38 C-55.29690486 32.47070837 -45.62587278 26.88982916 -35.98803711 21.24731445 C-30.59000321 18.08867326 -25.18286468 14.94688015 -19.76171875 11.828125 C-18.85731049 11.30763329 -18.85731049 11.30763329 -17.93463135 10.77662659 C-14.99463231 9.08510909 -12.05346827 7.39568346 -9.11083984 5.70874023 C-8.06492676 5.10747314 -7.01901367 4.50620605 -5.94140625 3.88671875 C-5.01013916 3.35264404 -4.07887207 2.81856934 -3.11938477 2.26831055 C-1.08882777 1.1700457 -1.08882777 1.1700457 0 0 Z " fill="#E55B2C" transform="translate(407,394)"/>
<path d="M0 0 C4.11433092 2.23088165 8.17793222 4.44636252 12.0625 7.0625 C15.56767761 9.37442566 19.2157592 11.19432165 23 13 C23 13.66 23 14.32 23 15 C23.72832031 15.10957031 24.45664062 15.21914063 25.20703125 15.33203125 C28.1727294 16.04131011 30.1161626 17.06819496 32.6875 18.6875 C33.56535156 19.23148437 34.44320312 19.77546875 35.34765625 20.3359375 C36.66056641 21.15964844 36.66056641 21.15964844 38 22 C44.54058338 26.00624566 51.18464873 29.79530036 57.8828125 33.52905273 C63.40125838 36.62274669 68.78343611 39.89707786 74.1328125 43.2734375 C77.02426425 45.01461144 79.9775229 46.50078722 83 48 C84.67739862 48.98189187 86.34467377 49.98133771 88 51 C91.59738729 53.18316777 95.21793067 55.15098833 99 57 C102.42404111 58.85697424 105.71609869 60.80670549 108.9375 63 C112.49269842 65.32176223 116.17313365 67.17398255 120 69 C120 69.66 120 70.32 120 71 C120.71671875 71.103125 121.4334375 71.20625 122.171875 71.3125 C125.32097435 72.07802691 127.50549883 73.29084957 130.25 75 C131.12140625 75.53625 131.9928125 76.0725 132.890625 76.625 C135 78 135 78 136 79 C136.11436162 81.05124343 136.15749682 83.10646571 136.17408752 85.16082764 C136.18058648 85.81152261 136.18708543 86.46221758 136.19378132 87.13263059 C136.21427925 89.32896784 136.22742598 91.52528642 136.24047852 93.72167969 C136.25328372 95.2900519 136.26641905 96.85842145 136.27986145 98.42678833 C136.39583825 112.75326387 136.45239859 127.08044147 136.49662876 141.40729904 C136.52988599 152.00315104 136.58946199 162.59814925 136.68413979 173.19363475 C136.74841393 180.63739688 136.78215692 188.08092599 136.79337829 195.52495503 C136.80094878 199.97393693 136.82221086 204.42188855 136.87640572 208.87056732 C136.92680216 213.05699351 136.93946176 217.2418426 136.92315483 221.42852402 C136.92375919 222.96487405 136.93806913 224.50128915 136.96710205 226.03736496 C137.17509511 237.64928284 137.17509511 237.64928284 134.27053642 240.98793793 C132.20587368 242.30919437 130.30452308 243.18369833 128 244 C126.40091797 244.82177734 126.40091797 244.82177734 124.76953125 245.66015625 C122.79079059 246.59855506 120.81162035 247.53604857 118.83203125 248.47265625 C115.95036231 249.91680174 115.95036231 249.91680174 113.51171875 251.99609375 C110.79482465 254.16369355 108.1315496 255.4997872 105 257 C102.39781728 258.40403024 99.8242067 259.85792853 97.25 261.3125 C96.54407715 261.71057861 95.8381543 262.10865723 95.11083984 262.51879883 C89.68478224 265.58934412 84.32351601 268.75484298 79 272 C68.12459128 278.56761695 57.17711763 284.95831479 46 291 C39.96780418 294.26028876 39.96780418 294.26028876 34.1875 297.9375 C31.22556599 299.85404554 28.28854228 301.38542419 25.125 302.9375 C20.96474047 304.98176546 16.96654488 307.06770312 13.14022636 309.68797874 C11 311 11 311 8.47722054 312.02279091 C5.44545427 313.38154481 3.35370039 314.63924712 1 317 C-0.51244726 322.0257243 -0.32507565 326.993433 -0.22705078 332.18505859 C-0.23409681 333.74259931 -0.24553721 335.30012541 -0.2610321 336.85760498 C-0.29059187 341.07700332 -0.25878539 345.29396021 -0.21586847 349.51316023 C-0.18145095 353.9254889 -0.20358621 358.33752707 -0.21969604 362.74990845 C-0.24160776 371.10116564 -0.21273665 379.45144266 -0.165573 387.80256426 C-0.11434563 397.31165627 -0.11980118 406.82045223 -0.12999368 416.32964587 C-0.14968746 435.88675773 -0.09827762 455.44314851 0 475 C-1.07523926 475.60110596 -2.15047852 476.20221191 -3.25830078 476.8215332 C-4.69567519 477.62704956 -6.13301034 478.43263598 -7.5703125 479.23828125 C-8.27583252 479.63245239 -8.98135254 480.02662354 -9.70825195 480.43273926 C-16.25605411 484.10621836 -22.63002108 488.0261456 -29 492 C-35.2440251 495.88496314 -41.57028666 499.31704461 -48.171875 502.55859375 C-52.94802037 504.99284464 -57.37221198 507.85314935 -61.75 510.9375 C-64.73581361 512.83234325 -67.70447439 514.38004882 -70.875 515.9375 C-76.82639537 518.86163856 -82.3335922 522.12139451 -87.75 525.9375 C-90.73581361 527.83234325 -93.70447439 529.38004882 -96.875 530.9375 C-100.96227566 532.94861973 -104.85085853 535.04320258 -108.671875 537.515625 C-111.93141778 539.59385697 -115.24678021 541.57549278 -118.5625 543.5625 C-119.18809814 543.93866455 -119.81369629 544.3148291 -120.45825195 544.70239258 C-122.30192596 545.80772493 -124.15041817 546.90458798 -126 548 C-126.93175049 548.56050049 -126.93175049 548.56050049 -127.88232422 549.13232422 C-130.98702142 550.96635398 -133.46317712 552.11579428 -137 553 C-137 449.05 -137 345.1 -137 238 C-133.13650609 239.54539756 -129.87579302 241.11206551 -126.30078125 243.16796875 C-125.18751465 243.80613525 -124.07424805 244.44430176 -122.92724609 245.10180664 C-121.72228318 245.79695534 -120.5173691 246.4921887 -119.3125 247.1875 C-118.05565201 247.90968618 -116.79865088 248.6316059 -115.54150391 249.35327148 C-112.31362852 251.20743067 -109.08810651 253.06563953 -105.86346436 254.92541504 C-103.00474796 256.57392183 -100.14481546 258.22031688 -97.28515625 259.8671875 C-91.92721891 262.95479176 -86.57207499 266.04720933 -81.21777344 269.14111328 C-76.89736627 271.63698431 -72.57546077 274.13025372 -68.25341797 276.62329102 C-66.08824898 277.872252 -63.92320944 279.12143742 -61.75830078 280.37084961 C-56.29404629 283.52425351 -50.82820611 286.67485151 -45.359375 289.8203125 C-43.1561336 291.08833944 -40.95300765 292.35656699 -38.75 293.625 C-37.68386475 294.23875488 -36.61772949 294.85250977 -35.51928711 295.48486328 C-27.22477062 300.27003937 -18.97608291 305.13006026 -10.76269531 310.05322266 C-9.91416992 310.55901855 -9.06564453 311.06481445 -8.19140625 311.5859375 C-7.08067749 312.25181885 -7.08067749 312.25181885 -5.94750977 312.93115234 C-3.88922112 314.13649228 -3.88922112 314.13649228 -1 315 C-0.77998506 294.81557146 -0.64605373 274.63231003 -0.61396885 254.44668674 C-0.59707362 245.07347098 -0.55225213 235.70195744 -0.44116211 226.3293457 C-0.34437972 218.15783602 -0.30052958 209.98802793 -0.31963962 201.81593746 C-0.32792284 197.48986738 -0.31011549 193.16752615 -0.22885323 188.84213448 C-0.15309468 184.76509639 -0.14845112 180.69398813 -0.19698334 176.61659431 C-0.20245033 175.12539882 -0.18252357 173.63384694 -0.13454247 172.14341354 C0.00764721 167.44770026 -0.16323353 163.41057402 -2 159 C-5.72435278 155.26926587 -10.44415275 153.02223758 -15.18731964 150.84837425 C-17.68155921 149.68101531 -20.02757443 148.29349773 -22.390625 146.8828125 C-24.00953955 145.96199787 -25.62933315 145.04272701 -27.25 144.125 C-29.05755339 143.09681413 -30.8648395 142.06815827 -32.671875 141.0390625 C-34.00895508 140.27770996 -34.00895508 140.27770996 -35.37304688 139.50097656 C-39.42582404 137.18531913 -43.46335256 134.84362752 -47.5 132.5 C-54.1914834 128.61591143 -60.90255063 124.76772568 -67.625 120.9375 C-74.79824972 116.84901716 -81.93555596 112.70548339 -89.04394531 108.50537109 C-94.41784313 105.33290598 -99.82706838 102.22868329 -105.25 99.140625 C-109.80057836 96.54669576 -114.33892662 93.93169391 -118.875 91.3125 C-119.65987793 90.86076416 -120.44475586 90.40902832 -121.25341797 89.94360352 C-123.50878934 88.63981415 -125.75621787 87.32362379 -128 86 C-128.77504883 85.5467334 -129.55009766 85.0934668 -130.34863281 84.62646484 C-131.08178711 84.18641113 -131.81494141 83.74635742 -132.5703125 83.29296875 C-133.23047363 82.90004639 -133.89063477 82.50712402 -134.57080078 82.10229492 C-135.27825439 81.55665894 -135.27825439 81.55665894 -136 81 C-136 80.34 -136 79.68 -136 79 C-135.33806641 78.6189209 -134.67613281 78.2378418 -133.99414062 77.84521484 C-130.82902985 76.02249878 -127.66435373 74.19902992 -124.5 72.375 C-123.91377869 72.03709442 -123.32755737 71.69918884 -122.72357178 71.3510437 C-114.50853204 66.6144932 -106.3095522 61.85159901 -98.125 57.0625 C-88.85676746 51.64166167 -79.5453552 46.2994025 -70.21658325 40.98379517 C-60.98074918 35.71996076 -51.78342984 30.39315101 -42.61010742 25.02099609 C-36.03700851 21.17550966 -29.43381651 17.38675859 -22.8125 13.625 C-15.10362696 9.24302311 -7.50014698 4.73107602 0 0 Z " fill="#EC8D24" transform="translate(546,471)"/>
<path d="M0 0 C3.3779741 1.32619175 6.51778979 2.75564953 9.67578125 4.546875 C11.02216675 5.30846924 11.02216675 5.30846924 12.39575195 6.08544922 C13.35827881 6.63475098 14.32080566 7.18405273 15.3125 7.75 C16.32723389 8.32637207 17.34196777 8.90274414 18.38745117 9.49658203 C26.55118402 14.14560975 34.67311123 18.86511278 42.77978516 23.61279297 C50.39402307 28.07162546 58.03704963 32.47864935 65.6875 36.875 C73.20201333 41.19559809 80.68303282 45.53561021 87.99609375 50.19140625 C91.6328347 52.38101751 95.35274556 54.39179814 99.0847168 56.41381836 C103.64565532 58.89538754 108.16767591 61.44450112 112.6875 64 C113.67516357 64.5583252 114.66282715 65.11665039 115.68041992 65.69189453 C123.76162596 70.27309445 131.79257062 74.93713304 139.80981445 79.62915039 C150.41811048 85.837196 161.06716947 91.97379721 171.71777344 98.10888672 C177.14659941 101.23680148 182.57319975 104.36857247 188 107.5 C194.58172877 111.29739963 201.16364072 115.09448093 207.74609375 118.890625 C217.37477099 124.44380123 227.00324335 129.99733877 236.625 135.5625 C237.35847656 135.98611816 238.09195313 136.40973633 238.84765625 136.84619141 C243.36603742 139.46009055 247.86854445 142.09953412 252.36328125 144.75390625 C253.99885986 145.71671509 253.99885986 145.71671509 255.66748047 146.69897461 C257.80830657 147.95991063 259.9467541 149.22489587 262.08251953 150.49438477 C263.05431152 151.06600342 264.02610352 151.63762207 265.02734375 152.2265625 C265.89093506 152.73783691 266.75452637 153.24911133 267.64428711 153.77587891 C270.68281992 155.38917797 270.68281992 155.38917797 274 156 C276.76800819 154.87901216 276.76800819 154.87901216 279.671875 153.08984375 C280.79924072 152.43653076 281.92660645 151.78321777 283.08813477 151.11010742 C284.30889262 150.3861344 285.52951099 149.66192615 286.75 148.9375 C288.01098074 148.20110427 289.27262661 147.4658464 290.53491211 146.73168945 C293.11506452 145.22832795 295.69092791 143.71800455 298.26318359 142.20117188 C301.67481167 140.18944732 305.09544549 138.19358968 308.51953125 136.203125 C312.5121385 133.88143408 316.50189986 131.55502156 320.48828125 129.22265625 C332.57869591 122.15027466 344.71349336 115.1579046 356.88049316 108.21817017 C357.47680542 107.87804901 358.07311768 107.53792786 358.6875 107.1875 C359.28171753 106.84858734 359.87593506 106.50967468 360.48815918 106.16049194 C370.88255517 100.22997619 381.23403381 94.22833021 391.5625 88.18359375 C392.43777344 87.6716748 393.31304688 87.15975586 394.21484375 86.63232422 C396.25057097 85.43922532 398.28412628 84.24241843 400.31640625 83.04345703 C401.40824219 82.40134277 402.50007813 81.75922852 403.625 81.09765625 C404.62789062 80.50605713 405.63078125 79.91445801 406.6640625 79.30493164 C409 78 409 78 410 78 C410.39760045 98.55750767 410.69712814 119.11437936 410.88080692 139.67495537 C410.96837188 149.2224385 411.08767569 158.76752944 411.2824707 168.31347656 C411.45223189 176.6366258 411.56165866 184.95804284 411.59950441 193.28287518 C411.62162332 197.68961507 411.67333965 202.09140128 411.79741096 206.4965477 C412.52432867 233.31735041 412.52432867 233.31735041 408.33588791 239.42771149 C404.3974925 243.05626629 400.09850051 244.91809507 394.99642754 246.37590408 C392.26110881 247.23098208 390.0490717 248.65104197 387.6875 250.25 C383.19900581 252.96450671 378.53400285 255.24788706 373.828125 257.55859375 C369.05197963 259.99284464 364.62778802 262.85314935 360.25 265.9375 C357.26418639 267.83234325 354.29552561 269.38004882 351.125 270.9375 C345.15750337 273.8695497 339.65641764 277.17002341 334.1875 280.9375 C330.47177275 283.34179411 326.62270974 285.40099571 322.7265625 287.49609375 C320.42762491 288.76413239 318.21017988 290.08566679 316 291.5 C311.14558309 294.59729668 306.0675425 297.27132327 301 300 C294.96757169 303.25988331 294.96757169 303.25988331 289.1875 306.9375 C276.46458924 315.16997167 276.46458924 315.16997167 270.375 314.75 C265.77745765 312.36608915 261.3811898 309.75877019 257 307 C255.33585057 305.99581652 253.66920462 304.99575786 252 304 C249.4488282 302.47170369 246.90049243 300.93950058 244.359375 299.39453125 C240.94554933 297.32477168 237.57212045 295.28606022 234 293.5 C230.62772624 291.81386312 227.46003455 289.8930407 224.23828125 287.9375 C220.01830604 285.41264149 215.75963099 282.95719361 211.5 280.5 C206.37014541 277.5408127 201.25035698 274.57305431 196.1875 271.5 C193.81155004 270.06052601 191.48848721 268.74424361 189 267.5 C183.57980757 264.78990379 178.47026167 261.51657574 173.30859375 258.34765625 C172.01115234 257.55681641 172.01115234 257.55681641 170.6875 256.75 C169.90761719 256.27046875 169.12773438 255.7909375 168.32421875 255.296875 C165.94251056 253.96792186 163.5511747 252.95725493 161 252 C161 251.34 161 250.68 161 250 C159.7934375 249.6596875 159.7934375 249.6596875 158.5625 249.3125 C150.69807696 246.41508099 143.64172331 241.62376173 136.49243164 237.29858398 C133.45927762 235.46455586 130.41681335 233.65525587 127.3359375 231.90234375 C124.61244568 230.34925181 121.92566656 228.75807924 119.25 227.125 C113.91978314 223.91722243 108.48006839 220.94246416 103 218 C101.80457841 217.3556711 100.60927067 216.71113095 99.4140625 216.06640625 C96.27739028 214.37509234 93.13908952 212.68682394 90 211 C90 210.34 90 209.68 90 209 C89.16597656 208.7628125 88.33195313 208.525625 87.47265625 208.28125 C83.43672154 206.79217623 80.06661236 204.77866032 76.4375 202.5 C72.38211393 199.96892155 68.5347768 197.60153346 64 196 C64 195.34 64 194.68 64 194 C62.7934375 193.6596875 62.7934375 193.6596875 61.5625 193.3125 C53.74106514 190.43091874 46.7566945 185.66367701 39.64624023 181.36669922 C36.01409236 179.18007648 32.36175132 177.06758607 28.625 175.0625 C23.7460315 172.44326428 18.96203386 169.6785973 14.1875 166.875 C13.46965332 166.45484619 12.75180664 166.03469238 12.01220703 165.60180664 C11.3211084 165.19438232 10.63000977 164.78695801 9.91796875 164.3671875 C9.00180786 163.82747314 9.00180786 163.82747314 8.06713867 163.27685547 C7.04390503 162.64481201 7.04390503 162.64481201 6 162 C4.98224676 161.44730061 3.96449352 160.89460121 2.91589928 160.32515335 C0 158 0 158 -0.73828697 155.04026413 C-0.72999084 153.29807539 -0.72999084 153.29807539 -0.7215271 151.52069092 C-0.72665365 150.87207195 -0.7317802 150.22345297 -0.7370621 149.55517888 C-0.74694093 147.38310264 -0.71396305 145.21381171 -0.68115234 143.04199219 C-0.67945978 141.4847724 -0.68041013 139.92754782 -0.68380737 138.37033081 C-0.68553019 134.14301078 -0.65023492 129.91671049 -0.60836363 125.68962765 C-0.57087678 121.27208045 -0.5673329 116.85451033 -0.56021118 112.43682861 C-0.54155624 104.07148466 -0.49231067 95.70661072 -0.43211424 87.34147382 C-0.36506909 77.81804951 -0.33206516 68.29460286 -0.30194163 58.77100134 C-0.23921202 39.18040514 -0.13366456 19.59023217 0 0 Z " fill="#E55B2C" transform="translate(545,158)"/>
<path d="M0 0 C0.39760045 20.55750767 0.69712814 41.11437936 0.88080692 61.67495537 C0.96837188 71.2224385 1.08767569 80.76752944 1.2824707 90.31347656 C1.45223189 98.6366258 1.56165866 106.95804284 1.59950441 115.28287518 C1.62162332 119.68961507 1.67333965 124.09140128 1.79741096 128.4965477 C2.52432867 155.31735041 2.52432867 155.31735041 -1.66411209 161.42771149 C-5.6025075 165.05626629 -9.90149949 166.91809507 -15.00357246 168.37590408 C-17.73889119 169.23098208 -19.9509283 170.65104197 -22.3125 172.25 C-26.80099419 174.96450671 -31.46599715 177.24788706 -36.171875 179.55859375 C-40.94802037 181.99284464 -45.37221198 184.85314935 -49.75 187.9375 C-52.73581361 189.83234325 -55.70447439 191.38004882 -58.875 192.9375 C-64.84249663 195.8695497 -70.34358236 199.17002341 -75.8125 202.9375 C-79.52822725 205.34179411 -83.37729026 207.40099571 -87.2734375 209.49609375 C-89.57237509 210.76413239 -91.78982012 212.08566679 -94 213.5 C-98.85441691 216.59729668 -103.9324575 219.27132327 -109 222 C-115.03242831 225.25988331 -115.03242831 225.25988331 -120.8125 228.9375 C-133.27272727 237 -133.27272727 237 -137 237 C-137.3038768 216.53796755 -137.53301813 196.07639372 -137.67355824 175.61257172 C-137.74055313 166.11041274 -137.83185928 156.60965674 -137.98071289 147.10839844 C-138.11041581 138.82556103 -138.19418496 130.54373959 -138.22315043 122.25991488 C-138.24008075 117.8742623 -138.27976086 113.49151566 -138.37449074 109.10679626 C-138.46301785 104.97555057 -138.48990325 100.84839364 -138.47039986 96.71628952 C-138.47396474 95.20361937 -138.49968058 93.69080698 -138.54967117 92.17895889 C-138.6952503 87.54748476 -138.59676291 83.41841046 -137 79 C-133.04527093 75.2877287 -128.9338296 73.26907598 -124 71 C-121.78838371 69.7804735 -119.62363908 68.49693435 -117.44921875 67.2109375 C-115.19636375 65.93044037 -112.9424241 64.65184997 -110.6875 63.375 C-108.21651171 61.97039194 -105.74677396 60.56359521 -103.27734375 59.15625 C-102.66214874 58.80577606 -102.04695374 58.45530212 -101.41311646 58.09420776 C-95.50411131 54.72427183 -89.62283832 51.30755763 -83.75 47.875 C-82.77562988 47.30571777 -81.80125977 46.73643555 -80.79736328 46.14990234 C-75.87901788 43.27399681 -70.96425324 40.39203423 -66.05078125 37.5078125 C-54.73771584 30.87630193 -43.36413818 24.37329877 -31.9074707 17.99291992 C-22.20549427 12.58085448 -12.58504252 7.03111387 -3.109375 1.23046875 C-1 0 -1 0 0 0 Z " fill="#ED8E24" transform="translate(955,236)"/>
<path d="M0 0 C4.11433092 2.23088165 8.17793222 4.44636252 12.0625 7.0625 C15.56767761 9.37442566 19.2157592 11.19432165 23 13 C23 13.66 23 14.32 23 15 C23.72832031 15.10957031 24.45664062 15.21914063 25.20703125 15.33203125 C28.1727294 16.04131011 30.1161626 17.06819496 32.6875 18.6875 C33.56535156 19.23148437 34.44320312 19.77546875 35.34765625 20.3359375 C36.66056641 21.15964844 36.66056641 21.15964844 38 22 C44.54058338 26.00624566 51.18464873 29.79530036 57.8828125 33.52905273 C63.40125838 36.62274669 68.78343611 39.89707786 74.1328125 43.2734375 C77.02426425 45.01461144 79.9775229 46.50078722 83 48 C84.67739862 48.98189187 86.34467377 49.98133771 88 51 C91.59738729 53.18316777 95.21793067 55.15098833 99 57 C102.42404111 58.85697424 105.71609869 60.80670549 108.9375 63 C112.49269842 65.32176223 116.17313365 67.17398255 120 69 C120 69.66 120 70.32 120 71 C120.71542969 71.10570312 121.43085937 71.21140625 122.16796875 71.3203125 C125.29484935 72.07076384 127.55460843 73.23252235 130.3125 74.875 C131.19550781 75.38804687 132.07851563 75.90109375 132.98828125 76.4296875 C133.98408203 77.20699219 133.98408203 77.20699219 135 78 C135 78.99 135 79.98 135 81 C133.58911133 82.15991211 133.58911133 82.15991211 131.58203125 83.27734375 C130.8329248 83.70217041 130.08381836 84.12699707 129.31201172 84.56469727 C128.48717285 85.01772217 127.66233398 85.47074707 126.8125 85.9375 C125.96187988 86.41695068 125.11125977 86.89640137 124.23486328 87.39038086 C122.4205765 88.41271706 120.60375496 89.43056558 118.78466797 90.44433594 C114.29647394 92.95168052 109.83711166 95.50912552 105.375 98.0625 C104.4974707 98.56289795 103.61994141 99.0632959 102.71582031 99.57885742 C96.43138363 103.16555344 90.18567878 106.81374995 83.95605469 110.49462891 C78.56558989 113.67687429 73.1399536 116.79102127 67.69921875 119.88671875 C63.43220438 122.31853315 59.18550659 124.78518242 54.9375 127.25 C48.0998093 131.2167461 41.24336125 135.14912408 34.375 139.0625 C26.36900108 143.62647408 18.40300761 148.25388586 10.46875 152.94140625 C9.86546875 153.29219238 9.2621875 153.64297852 8.640625 154.00439453 C7.20318537 154.87669793 5.8288407 155.85125931 4.46875 156.83984375 C0.81195525 158.55830584 -1.1035332 158.05579111 -5 157 C-8.50215634 155.35223028 -11.80368526 153.42068794 -15.125 151.4375 C-16.05425293 150.89464355 -16.98350586 150.35178711 -17.94091797 149.79248047 C-24.08258251 146.18947025 -30.15298742 142.47778138 -36.1953125 138.7109375 C-39.6221442 136.62047471 -43.12795261 134.71799024 -46.6640625 132.8203125 C-58.35141053 126.44290714 -69.87253127 119.77352349 -81.16796875 112.7265625 C-84.76322959 110.53469313 -88.44301899 108.53372866 -92.15234375 106.54296875 C-97.82759948 103.46789877 -103.40712681 100.22166452 -109 97 C-110.16354004 96.33097656 -110.16354004 96.33097656 -111.35058594 95.6484375 C-113.85981713 94.20501335 -116.36761329 92.75912554 -118.875 91.3125 C-119.65939453 90.86108643 -120.44378906 90.40967285 -121.25195312 89.94458008 C-123.50777481 88.64040327 -125.75571502 87.32392043 -128 86 C-128.77504883 85.5467334 -129.55009766 85.0934668 -130.34863281 84.62646484 C-131.08178711 84.18641113 -131.81494141 83.74635742 -132.5703125 83.29296875 C-133.23047363 82.90004639 -133.89063477 82.50712402 -134.57080078 82.10229492 C-135.27825439 81.55665894 -135.27825439 81.55665894 -136 81 C-136 80.34 -136 79.68 -136 79 C-135.33806641 78.6189209 -134.67613281 78.2378418 -133.99414062 77.84521484 C-130.82902985 76.02249878 -127.66435373 74.19902992 -124.5 72.375 C-123.91377869 72.03709442 -123.32755737 71.69918884 -122.72357178 71.3510437 C-114.50853204 66.6144932 -106.3095522 61.85159901 -98.125 57.0625 C-88.85676746 51.64166167 -79.5453552 46.2994025 -70.21658325 40.98379517 C-60.98074918 35.71996076 -51.78342984 30.39315101 -42.61010742 25.02099609 C-36.03700851 21.17550966 -29.43381651 17.38675859 -22.8125 13.625 C-15.10362696 9.24302311 -7.50014698 4.73107602 0 0 Z " fill="#F7BE3B" transform="translate(546,471)"/>
<path d="M0 0 C3.57551303 1.16422186 6.83364565 2.29986745 10.07421875 4.21484375 C11.18349731 4.8641687 11.18349731 4.8641687 12.31518555 5.52661133 C13.09804932 5.99220459 13.88091309 6.45779785 14.6875 6.9375 C16.39574161 7.94026044 18.10407748 8.94286031 19.8125 9.9453125 C20.67875 10.45610352 21.545 10.96689453 22.4375 11.49316406 C26.34124465 13.78869684 30.26493451 16.04933661 34.1875 18.3125 C39.3737281 21.31089796 44.55295749 24.3208378 49.72265625 27.34765625 C60.71434346 33.78161756 71.74173858 40.13962589 82.84228516 46.3840332 C89.14725984 49.93635351 95.40542156 53.55749493 101.62817383 57.25170898 C105.55343316 59.57700105 109.49921858 61.8603409 113.46875 64.109375 C114.4076709 64.64167725 115.3465918 65.17397949 116.31396484 65.72241211 C118.13529109 66.75266205 119.95842601 67.77972367 121.78369141 68.80297852 C122.62077637 69.27662842 123.45786133 69.75027832 124.3203125 70.23828125 C125.05523926 70.65118408 125.79016602 71.06408691 126.54736328 71.48950195 C127.3567334 71.98796631 128.16610352 72.48643066 129 73 C130.1891954 73.54530365 131.37839081 74.0906073 132.60362244 74.6524353 C135.30494112 76.62280966 135.92868329 77.66595535 136.6361084 80.97950649 C136.86603013 85.02636202 136.86624824 89.02110796 136.79467773 93.0715332 C136.79270254 94.62890025 136.79381288 96.18627382 136.79777527 97.74363708 C136.79978317 101.96691889 136.75864044 106.18880808 136.70975757 110.41176629 C136.66598768 114.82661893 136.66188564 119.24150378 136.65357971 123.65653992 C136.63182583 132.01484951 136.57438702 140.37251793 136.50413328 148.73054522 C136.42588173 158.24671346 136.38740134 167.76291237 136.35226524 177.27932227 C136.27910396 196.85323933 136.15598555 216.42657927 136 236 C134.06933544 235.04355277 132.13967726 234.08507391 130.21044922 233.12573242 C129.13576385 232.5921965 128.06107849 232.05866058 126.9538269 231.50895691 C123.88319966 229.94033277 120.99157208 228.22801312 118.125 226.3125 C114.49746184 223.94243941 110.89463092 221.90588322 107 220 C105.53520708 219.13585718 104.07777714 218.25919438 102.625 217.375 C98.13661263 214.64942338 93.58352348 212.06053212 89 209.5 C83.75474218 206.5666446 78.55736398 203.57728771 73.41796875 200.4609375 C66.92278456 196.53654512 60.3731981 192.71583488 53.6875 189.125 C48.49194694 186.31985379 43.43668227 183.30766572 38.3894043 180.24658203 C35.40004261 178.43418833 32.40212288 176.64640498 29.36328125 174.91796875 C26.52544116 173.29964182 23.72636104 171.63802502 20.9375 169.9375 C18.31657789 168.35706426 15.73897066 166.86948533 13 165.5 C11.515 164.7575 11.515 164.7575 10 164 C9.19461603 163.69470556 8.38923206 163.38941113 7.55944252 163.07486534 C4.4986676 161.67995477 2.37759725 160.39545533 0 158 C-1.49120956 152.97012148 -1.26655566 148.00338895 -1.13525391 142.81494141 C-1.13243142 141.2574278 -1.13401994 139.6999009 -1.13967896 138.14239502 C-1.14254475 133.92270563 -1.08382262 129.70586718 -1.01393938 125.48683977 C-0.9513613 121.07473807 -0.94554723 116.66256856 -0.9336853 112.25009155 C-0.90262204 103.89857679 -0.82058831 95.54837339 -0.72019041 87.19743574 C-0.60835716 77.68859428 -0.55341964 68.17968966 -0.50323606 58.67035413 C-0.39875172 39.11283788 -0.22289764 19.55650159 0 0 Z " fill="#E55B2C" transform="translate(0,316)"/>
</svg>
