<?xml version="1.0" encoding="UTF-8"?>
<svg version="1.1" xmlns="http://www.w3.org/2000/svg" width="280" height="280">
<path d="M0 0 C3.13207218 1.25282887 5.74727771 2.32050294 8.6015625 3.953125 C9.25189453 4.32252197 9.90222656 4.69191895 10.57226562 5.07250977 C11.58836914 5.65536743 11.58836914 5.65536743 12.625 6.25 C14.04394635 7.0565607 15.46321905 7.86254753 16.8828125 8.66796875 C17.57793945 9.06290527 18.27306641 9.4578418 18.98925781 9.86474609 C23.29670013 12.29670418 27.64807877 14.64885611 32 17 C32 17.66 32 18.32 32 19 C32.99 19.0928125 32.99 19.0928125 34 19.1875 C37.43206111 20.11701655 39.75472346 21.61765664 42.70703125 23.55078125 C45.18616016 25.1176583 47.72363176 26.49747097 50.3125 27.875 C54.1790967 29.95249464 57.8843371 32.167538 61.5625 34.5625 C66.53953058 37.78334979 71.65366189 40.45279179 77 43 C78.2097787 43.60126726 79.41836693 44.20494471 80.625 44.8125 C81.40875 45.204375 82.1925 45.59625 83 46 C83 46.66 83 47.32 83 48 C83.51433594 48.0825 84.02867187 48.165 84.55859375 48.25 C88.01650632 49.31227074 90.97111761 51.16378948 94.0625 53 C98.85554894 55.86013785 98.85554894 55.86013785 104 58 C104 58.66 104 59.32 104 60 C104.5529776 60.11979218 105.1059552 60.23958435 105.6756897 60.36300659 C110.46862299 61.6765433 114.45831904 63.44606513 118 67 C119.40654611 71.64505278 119.16730259 76.11310019 118.9765625 80.9296875 C118.95789078 82.28869404 118.94366578 83.6477683 118.9336853 85.00686646 C118.89565449 88.56958698 118.79758931 92.12817385 118.68664551 95.68927002 C118.58399938 99.32873602 118.53860424 102.96887613 118.48828125 106.609375 C118.38130889 113.741266 118.21084551 120.87036201 118 128 C113.54784101 127.23544518 110.69052972 125.77337605 106.875 123.3125 C102.81399108 120.7324026 98.75054971 118.26238936 94.5 116 C89.09352639 113.11389718 83.93037259 109.90558367 78.75 106.63671875 C76.05309715 104.89911287 76.05309715 104.89911287 73 104 C73 103.34 73 102.68 73 102 C72.01 101.9071875 72.01 101.9071875 71 101.8125 C67.43926366 100.84813391 64.91195685 99.19399447 61.8671875 97.15625 C59.89916091 95.83827223 59.89916091 95.83827223 57 95 C57 94.34 57 93.68 57 93 C56.443125 92.896875 55.88625 92.79375 55.3125 92.6875 C53 92 53 92 48 89 C48 98.57 48 108.14 48 118 C49.65 118.66 51.3 119.32 53 120 C54.56055107 120.88413474 56.10202748 121.80259903 57.625 122.75 C64.88987312 127.18482553 72.34561287 131.2762441 80 135 C80 135.66 80 136.32 80 137 C80.99 137 81.98 137 83 137 C83 154.82 83 172.64 83 191 C79.62628154 190.15657039 77.73639625 189.42192538 74.83984375 187.70703125 C74.04513672 187.24103516 73.25042969 186.77503906 72.43164062 186.29492188 C71.60857422 185.80572266 70.78550781 185.31652344 69.9375 184.8125 C64.72527081 181.73580763 59.50081818 178.70482612 54.18188477 175.81518555 C53.20687515 175.28499313 52.23186554 174.75480072 51.22731018 174.20854187 C50.12479164 173.61031364 50.12479164 173.61031364 49 173 C49.03632538 173.91073776 49.07265076 174.82147552 49.1100769 175.7598114 C49.43451532 184.39400854 49.65055001 193.02295166 49.74871635 201.66279888 C49.8029092 206.10459281 49.89708005 210.53759928 50.08691406 214.97583008 C51.2670993 243.53919355 51.2670993 243.53919355 45.92541504 250.83258057 C40.86760086 255.27288071 35.23768662 257.74277578 28.92497253 259.91259766 C20.26725845 263.13123253 12.41574229 268.53150252 4.65234375 273.4609375 C2 275 2 275 0 275 C0 184.25 0 93.5 0 0 Z " fill="#FC9000" transform="translate(145,3)"/>
<path d="M0 0 C0 90.75 0 181.5 0 275 C-3.44938147 273.62024741 -6.02772283 272.49375135 -9.07421875 270.57421875 C-9.81889404 270.10999512 -10.56356934 269.64577148 -11.33081055 269.16748047 C-12.10851807 268.67908691 -12.88622559 268.19069336 -13.6875 267.6875 C-20.78767196 263.26456902 -20.78767196 263.26456902 -28.1875 259.375 C-28.87056182 259.03606688 -29.55362364 258.69713377 -30.2573843 258.34792995 C-31.74956398 257.61455936 -33.24706099 256.89040803 -34.76690304 256.21623242 C-46.8822622 250.7525933 -46.8822622 250.7525933 -49.36482048 244.63892937 C-49.85058368 240.48117453 -49.86143822 236.55467136 -49.70288086 232.38256836 C-49.69864369 230.81476247 -49.70103668 229.24692686 -49.70951843 227.67913818 C-49.71380518 223.44369359 -49.62595533 219.21468299 -49.52090907 214.98072886 C-49.42682065 210.54881431 -49.41830428 206.11673437 -49.40052795 201.68397522 C-49.35399464 193.29989949 -49.23103937 184.91877487 -49.08028561 176.53599602 C-48.91233392 166.98862437 -48.83008082 157.44110797 -48.75485408 147.89262569 C-48.59826979 128.26010628 -48.33461895 108.63023936 -48 89 C-50.72938278 90.60379918 -53.45846719 92.2081054 -56.1875 93.8125 C-56.95642578 94.26431641 -57.72535156 94.71613281 -58.51757812 95.18164062 C-59.26845703 95.62314453 -60.01933594 96.06464844 -60.79296875 96.51953125 C-61.52306152 96.9470166 -62.2531543 97.37450195 -63.00537109 97.81494141 C-64.64296977 98.78787947 -66.25679996 99.80071703 -67.86328125 100.82421875 C-70 102 -70 102 -73 102 C-73 102.66 -73 103.32 -73 104 C-73.67804688 104.36351563 -74.35609375 104.72703125 -75.0546875 105.1015625 C-80.78968622 108.199415 -86.39830984 111.4112676 -91.90625 114.8984375 C-94 116 -94 116 -97 116 C-97 116.66 -97 117.32 -97 118 C-97.94359375 118.45439453 -97.94359375 118.45439453 -98.90625 118.91796875 C-103.92300664 121.37345958 -108.68431483 123.94447248 -113.30859375 127.08203125 C-115 128 -115 128 -118 128 C-118 107.54 -118 87.08 -118 66 C-114.7 64.35 -111.4 62.7 -108 61 C-104.64289419 59.03049792 -101.31627613 57.03550742 -98 55 C-82.76352795 45.67861275 -82.76352795 45.67861275 -74.953125 41.97265625 C-72.76466382 40.93383729 -72.76466382 40.93383729 -70 39 C-69.01 39 -68.02 39 -67 39 C-67 38.34 -67 37.68 -67 37 C-66.32195312 36.63648438 -65.64390625 36.27296875 -64.9453125 35.8984375 C-60.23818063 33.35580394 -55.57241547 30.7787348 -51 28 C-46.64601835 25.3545428 -42.20207877 22.91797507 -37.71875 20.5 C-34.27286767 18.59882354 -30.92084634 16.55987458 -27.55859375 14.515625 C-23.87876103 12.33581569 -20.11801915 10.31496852 -16.34765625 8.296875 C-13.84592951 6.95738435 -13.84592951 6.95738435 -11 5 C-10.01 5 -9.02 5 -8 5 C-8 4.34 -8 3.68 -8 3 C-2.25 0 -2.25 0 0 0 Z " fill="#FC7F00" transform="translate(135,3)"/>
</svg>
